<svg xmlns="http://www.w3.org/2000/svg" width="4001" height="2501"><path fill="#E5FFE5" fill-rule="evenodd" d="M1 0h4000v2500H1V0"/><path fill="#B3B3B3" d="M851 396a212 212 0 0 1-271 213 210 210 0 0 1-39-388 210 210 0 0 1 225 16L637 404a5 5 0 0 0 4 8Zm-16 117c20-37 30-80 26-123 0-3-2-5-5-5l-204 16 125-161c2-3 2-6-1-8a222 222 0 0 0-347 112 220 220 0 0 0 317 258c39-21 69-53 89-89"/><path fill="#B3B3B3" d="M820 398a179 179 0 0 1-94 165 177 177 0 0 1-254-208 177 177 0 0 1 275-92L637 404a5 5 0 0 0 4 8Zm-13 99a189 189 0 0 0 22-105c0-3-2-5-5-4l-172 13 106-136c1-2 1-6-1-7a189 189 0 0 0-295 94 187 187 0 0 0 269 220c33-18 59-45 76-75"/><path fill="#B3B3B3" d="M691 454a18 18 0 0 1-21 27 18 18 0 1 1 21-27Zm11 17a28 28 0 0 0-41-33 28 28 0 0 0-11 39 28 28 0 0 0 52-6M613 292a18 18 0 0 1 25-9 18 18 0 1 1-25 9Zm7-19a28 28 0 0 0-17 36 28 28 0 1 0 54-18 28 28 0 0 0-37-18M622 360a5 5 0 0 0-8-6c-7 8-13 6-19 3-8-3-17-7-29 1a5 5 0 0 0 6 9c7-6 13-3 19-1 10 4 19 8 31-6M561 427a5 5 0 1 0 4 10c10-3 14 2 17 7 6 8 11 16 26 15a5 5 0 0 0-1-10c-9 0-13-5-16-11-7-8-12-16-30-11M788 453a5 5 0 0 0-8-7c-7 8-13 5-19 2-8-4-17-9-29-1a5 5 0 0 0 5 8c8-4 14-1 20 2 9 4 18 9 31-4M579 493a18 18 0 0 1-8 24 18 18 0 1 1 8-24Zm11 16a28 28 0 0 0-41-33 28 28 0 0 0 5 52 28 28 0 0 0 36-19M645 504a5 5 0 1 0-8 6c6 8 2 13-2 19-5 7-11 15-5 28a5 5 0 1 0 9-3c-3-9 1-14 4-19 7-9 13-17 2-31M544 352a18 18 0 1 1-32 17 18 18 0 0 1 32-17Zm11 17a28 28 0 0 0-41-33 28 28 0 0 0 5 52 28 28 0 0 0 36-19M503 400a5 5 0 0 0-1 10c10 1 11 8 12 14 2 9 3 19 17 24a5 5 0 0 0 4-9c-9-3-10-10-11-16-1-11-3-21-21-23M664 250a5 5 0 0 0-1 10c10 1 11 7 12 14 2 9 4 18 17 24a5 5 0 0 0 4-10c-8-3-9-10-11-16-2-10-3-20-21-22M571 273a5 5 0 1 0-8 6c6 8 3 14-1 19-6 7-11 15-6 29 1 2 4 3 7 2s4-4 3-6c-4-8 0-14 4-19 6-9 12-17 1-31M691 497a5 5 0 0 0 2 9c10-1 13 4 16 10 4 8 8 17 23 18a5 5 0 1 0 1-10c-9-1-12-7-15-12-5-10-9-19-27-15M927 350a220 220 0 0 0-81-151c-3-2-6-1-8 1L711 364a5 5 0 0 0 4 8l207-16a5 5 0 0 0 5-6Zm-18-40c3 12 6 24 7 36l-190 15 117-151a209 209 0 0 1 66 100"/><path fill="#B3B3B3" d="M895 353a186 186 0 0 0-69-128c-2-2-6-2-7 0L711 364a5 5 0 0 0 4 8l175-14a5 5 0 0 0 5-5Zm-17-34 6 30-158 12 97-125a177 177 0 0 1 55 83"/><path fill="#B3B3B3" d="M825 299a15 15 0 1 1 27 13 15 15 0 0 1-27-13Zm6-17a25 25 0 1 0 16 47 25 25 0 0 0-16-47M764 342a5 5 0 0 0 10-2c-3-9 2-11 6-14 7-4 15-9 15-22a5 5 0 0 0-10 0c0 7-5 10-10 13-8 5-15 10-11 25M851 1496a212 212 0 0 1-271 213 210 210 0 0 1-39-388 210 210 0 0 1 225 16l-129 167a5 5 0 0 0 4 8Zm-16 117c20-37 30-80 26-123 0-3-2-5-5-5l-204 16 125-161c2-3 2-6-1-8a222 222 0 0 0-347 112 220 220 0 0 0 317 258c39-21 69-53 89-89"/><path fill="#B3B3B3" d="M820 1498a179 179 0 0 1-94 165 177 177 0 0 1-254-208 177 177 0 0 1 275-92l-110 141a5 5 0 0 0 4 8Zm-13 99a189 189 0 0 0 22-105c0-3-2-5-5-4l-172 13 106-136c1-2 1-6-1-7a189 189 0 0 0-295 94 187 187 0 0 0 269 220c33-18 59-45 76-75"/><path fill="#B3B3B3" d="M691 1554a18 18 0 0 1-21 27 18 18 0 0 1-13-23 18 18 0 0 1 23-12c5 1 8 4 11 8Zm11 17a28 28 0 0 0-41-33 28 28 0 0 0 6 52 28 28 0 0 0 35-19M613 1392a18 18 0 0 1 25-9 18 18 0 1 1-25 9Zm7-19a28 28 0 0 0-17 36 28 28 0 1 0 54-18 28 28 0 0 0-37-18M622 1460a5 5 0 0 0-8-6c-7 8-13 6-19 3-8-3-17-7-29 1a5 5 0 0 0 6 9c7-6 13-3 19-1 10 4 19 8 31-6M561 1527a5 5 0 1 0 4 10c10-3 14 2 17 7 6 8 11 16 26 15a5 5 0 0 0-1-10c-9 0-13-5-16-11-7-8-12-16-30-11M788 1553a5 5 0 0 0-8-7c-7 8-13 5-19 2-8-4-17-9-29-1a5 5 0 0 0 5 8c8-4 14-1 20 2 9 4 18 9 31-4M579 1593a18 18 0 0 1-22 26 18 18 0 0 1-12-23 18 18 0 0 1 34-3Zm11 16a28 28 0 0 0-41-33 28 28 0 0 0 5 52 28 28 0 0 0 36-19M645 1604a5 5 0 0 0-8 6c6 8 2 13-2 19-5 7-11 15-5 28a5 5 0 1 0 9-3c-3-9 1-14 4-19 7-9 13-17 2-31M544 1452a18 18 0 1 1-32 17 18 18 0 0 1 32-17Zm11 17a28 28 0 0 0-41-33 28 28 0 0 0 5 52 28 28 0 0 0 36-19M503 1500a5 5 0 0 0-1 10c10 1 11 8 12 14 2 9 3 19 17 24a5 5 0 1 0 4-9c-9-3-10-10-11-16-1-11-3-21-21-23M664 1350a5 5 0 0 0-1 10c10 1 11 7 12 14 2 9 4 18 17 24a5 5 0 0 0 4-10c-8-3-9-10-11-16-2-10-3-20-21-22M571 1373a5 5 0 1 0-8 6c6 8 3 14-1 19-6 7-11 15-6 29 1 2 4 3 7 2s4-4 3-6c-4-8 0-14 4-19 6-9 12-17 1-31M691 1597a5 5 0 0 0 2 9c10-1 13 4 16 10 4 8 8 17 23 18a5 5 0 0 0 1-10c-9-1-12-7-15-12-5-10-9-19-27-15M927 1450a220 220 0 0 0-81-151c-3-2-6-1-8 1l-127 164a5 5 0 0 0 4 8l207-16a5 5 0 0 0 5-6Zm-18-40c3 12 6 24 7 36l-190 15 117-151a209 209 0 0 1 66 100"/><path fill="#B3B3B3" d="M895 1453a186 186 0 0 0-69-128c-2-2-6-2-7 0l-108 139a5 5 0 0 0 4 8l175-14a5 5 0 0 0 5-5Zm-17-34 6 30-158 12 97-125a177 177 0 0 1 55 83"/><path fill="#B3B3B3" d="M825 1399a15 15 0 1 1 27 13 15 15 0 0 1-27-13Zm6-17a25 25 0 1 0 16 47 25 25 0 0 0-16-47M764 1442a5 5 0 0 0 10-2c-3-9 2-11 6-14 7-4 15-9 15-22a5 5 0 0 0-10 0c0 7-5 10-10 13-8 5-15 10-11 25M459 2500a210 210 0 0 1 307-63l-49 63h13l47-60c2-3 2-6-1-8a222 222 0 0 0-329 68h12"/><path fill="#B3B3B3" d="M500 2500a177 177 0 0 1 247-37l-30 37h13l28-35c1-2 1-6-1-7a189 189 0 0 0-270 42h13"/><path fill="#B3B3B3" d="M613 2492a18 18 0 0 1 25-9 18 18 0 0 1 10 17h10a28 28 0 1 0-57 0h11c-1-3 0-5 1-8M664 2450a5 5 0 1 0-1 10c10 1 11 7 12 14 2 9 4 18 17 24a5 5 0 0 0 4-10c-8-3-9-10-11-16-2-10-3-20-21-22M571 2473a5 5 0 0 0-8 6c6 8 3 14-1 19l-2 2h13c4-7 7-15-2-27M916 2500a222 222 0 0 0-70-101c-3-2-6-1-8 1l-77 100h12l70-90a209 209 0 0 1 62 90h11"/><path fill="#B3B3B3" d="M882 2500a188 188 0 0 0-56-75c-2-2-6-2-7 0l-58 75h12l50-64a176 176 0 0 1 48 64h11"/><path fill="#B3B3B3" d="M825 2499a15 15 0 0 1 28 1h10a25 25 0 0 0-32-18 25 25 0 0 0-17 18h11v-1M793 2500a5 5 0 0 0-6 0h6M1951 396a212 212 0 0 1-271 213 210 210 0 0 1-39-388 210 210 0 0 1 225 16l-129 167a5 5 0 0 0 4 8Zm-16 117c20-37 30-80 26-123 0-3-2-5-5-5l-204 16 125-161c2-3 2-6-1-8a222 222 0 0 0-347 112 220 220 0 0 0 317 258c39-21 69-53 89-89"/><path fill="#B3B3B3" d="M1920 398a178 178 0 0 1-229 178 177 177 0 0 1-33-326 177 177 0 0 1 189 13l-110 141a5 5 0 0 0 4 8Zm-13 99c17-32 25-68 22-104v-1c0-3-2-5-5-4l-172 13 106-136c1-2 1-6-1-7a189 189 0 0 0-295 94 187 187 0 0 0 269 220c33-18 59-45 76-75"/><path fill="#B3B3B3" d="M1791 454a18 18 0 0 1-8 25 18 18 0 1 1 8-25Zm11 17a28 28 0 1 0-54-16 28 28 0 0 0 54 16M1713 292a18 18 0 0 1 25-9 18 18 0 1 1-25 9Zm7-19a28 28 0 0 0-2 53 28 28 0 1 0 2-53M1722 360a5 5 0 1 0-8-6c-7 8-13 6-19 3-8-3-17-7-29 1a5 5 0 0 0 6 9c7-6 13-3 19-1 10 4 19 8 31-6M1661 427a5 5 0 1 0 4 10c10-3 14 2 17 7 6 8 11 16 26 15a5 5 0 0 0-1-10c-9 0-13-5-16-11-7-8-12-16-30-11M1888 453a5 5 0 0 0-8-7c-7 8-13 5-19 2-8-4-17-9-29-1a5 5 0 1 0 5 8c8-4 14-1 20 2 9 4 18 9 31-4M1679 493a18 18 0 1 1-33 17 18 18 0 0 1 33-17Zm11 16a28 28 0 1 0-55-16 28 28 0 0 0 55 16M1745 504a5 5 0 1 0-8 6c6 8 2 13-2 19-5 7-11 15-5 28a5 5 0 0 0 9-3c-3-9 1-14 4-19 7-9 13-17 2-31M1644 352a18 18 0 1 1-33 17 18 18 0 0 1 33-17Zm11 17a28 28 0 0 0-19-36 28 28 0 1 0-17 55 28 28 0 0 0 36-19M1603 400a5 5 0 0 0-1 10c10 1 11 8 12 14 2 9 3 19 17 24a5 5 0 0 0 4-9c-9-3-10-10-11-16-1-11-3-21-21-23M1764 250a5 5 0 0 0-1 10c10 1 11 7 12 14 2 9 4 18 17 24a5 5 0 0 0 4-10c-8-3-9-10-11-16-2-10-3-20-21-22M1671 273a5 5 0 1 0-8 6c6 8 3 14-1 19-6 7-11 15-6 29a5 5 0 1 0 10-4c-4-8 0-14 4-19 6-9 12-17 1-31M1791 497c-3 0-5 3-4 5 0 3 3 5 6 4 10-1 13 4 16 10 4 8 8 17 23 18a5 5 0 1 0 1-10c-9-1-12-7-15-12-5-10-9-19-27-15M2027 350a220 220 0 0 0-81-151c-3-2-6-1-8 1l-127 164a5 5 0 0 0 4 8l207-16c3 0 5-3 5-6Zm-18-40c3 12 6 24 7 36l-190 15 117-151a209 209 0 0 1 66 100"/><path fill="#B3B3B3" d="M1995 353a187 187 0 0 0-69-128c-2-2-6-2-7 0l-108 139a5 5 0 0 0 4 8l175-14a5 5 0 0 0 5-5Zm-17-34 6 30-158 12 97-125a176 176 0 0 1 55 83"/><path fill="#B3B3B3" d="M1925 299a15 15 0 0 1 28 2 15 15 0 1 1-28 10c-2-4-2-8 0-12Zm6-17a25 25 0 1 0 16 47 25 25 0 1 0-16-47M1864 342a5 5 0 1 0 10-2c-3-9 2-11 6-14 7-4 15-9 15-22a5 5 0 0 0-10 0c0 7-5 10-10 13-8 5-15 10-11 25M1951 1496a212 212 0 0 1-271 213 210 210 0 0 1-39-388 210 210 0 0 1 225 16l-129 167a5 5 0 0 0 4 8Zm-16 117c20-37 30-80 26-123 0-3-2-5-5-5l-204 16 125-161c2-3 2-6-1-8a222 222 0 0 0-347 112 220 220 0 0 0 317 258c39-21 69-53 89-89"/><path fill="#B3B3B3" d="M1920 1498a178 178 0 0 1-229 178 177 177 0 0 1-33-326 177 177 0 0 1 189 13l-110 141a5 5 0 0 0 4 8Zm-13 99c17-32 25-68 22-104v-1c0-3-2-5-5-4l-172 13 106-136c1-2 1-6-1-7a189 189 0 0 0-295 94 187 187 0 0 0 269 220c33-18 59-45 76-75"/><path fill="#B3B3B3" d="M1791 1554a18 18 0 0 1-8 25 18 18 0 0 1-26-21 18 18 0 0 1 23-12c5 1 8 4 11 8Zm11 17a28 28 0 1 0-54-16 28 28 0 0 0 54 16M1713 1392a18 18 0 0 1 25-9 18 18 0 1 1-25 9Zm7-19a28 28 0 0 0-2 53 28 28 0 1 0 2-53M1722 1460a5 5 0 1 0-8-6c-7 8-13 6-19 3-8-3-17-7-29 1a5 5 0 0 0 6 9c7-6 13-3 19-1 10 4 19 8 31-6M1661 1527a5 5 0 1 0 4 10c10-3 14 2 17 7 6 8 11 16 26 15a5 5 0 1 0-1-10c-9 0-13-5-16-11-7-8-12-16-30-11M1888 1553a5 5 0 1 0-8-7c-7 8-13 5-19 2-8-4-17-9-29-1a5 5 0 1 0 5 8c8-4 14-1 20 2 9 4 18 9 31-4M1679 1593a18 18 0 1 1-33 17 18 18 0 0 1 33-17Zm11 16a28 28 0 1 0-55-16 28 28 0 0 0 55 16M1745 1604a5 5 0 0 0-8 6c6 8 2 13-2 19-5 7-11 15-5 28a5 5 0 0 0 9-3c-3-9 1-14 4-19 7-9 13-17 2-31M1644 1452a18 18 0 1 1-33 17 18 18 0 0 1 33-17Zm11 17a28 28 0 0 0-19-36 28 28 0 1 0-17 55 28 28 0 0 0 36-19M1603 1500a5 5 0 0 0-1 10c10 1 11 8 12 14 2 9 3 19 17 24a5 5 0 1 0 4-9c-9-3-10-10-11-16-1-11-3-21-21-23M1764 1350a5 5 0 0 0-1 10c10 1 11 7 12 14 2 9 4 18 17 24a5 5 0 0 0 4-10c-8-3-9-10-11-16-2-10-3-20-21-22M1671 1373a5 5 0 1 0-8 6c6 8 3 14-1 19-6 7-11 15-6 29a5 5 0 1 0 10-4c-4-8 0-14 4-19 6-9 12-17 1-31M1791 1597a5 5 0 0 0 2 9c10-1 13 4 16 10 4 8 8 17 23 18a5 5 0 0 0 1-10c-9-1-12-7-15-12-5-10-9-19-27-15M2027 1450a220 220 0 0 0-81-151c-3-2-6-1-8 1l-127 164a5 5 0 0 0 4 8l207-16c3 0 5-3 5-6Zm-18-40c3 12 6 24 7 36l-190 15 117-151a209 209 0 0 1 66 100"/><path fill="#B3B3B3" d="M1995 1453a187 187 0 0 0-69-128c-2-2-6-2-7 0l-108 139a5 5 0 0 0 4 8l175-14a5 5 0 0 0 5-5Zm-17-34 6 30-158 12 97-125a176 176 0 0 1 55 83"/><path fill="#B3B3B3" d="M1925 1399a15 15 0 0 1 28 2 15 15 0 1 1-28 10c-2-4-2-8 0-12Zm6-17a25 25 0 1 0 16 47 25 25 0 1 0-16-47M1864 1442a5 5 0 1 0 10-2c-3-9 2-11 6-14 7-4 15-9 15-22a5 5 0 0 0-10 0c0 7-5 10-10 13-8 5-15 10-11 25M1559 2500a210 210 0 0 1 307-63l-49 63h13l47-60c2-3 2-6-1-8a222 222 0 0 0-329 68h12"/><path fill="#B3B3B3" d="M1600 2500a177 177 0 0 1 247-37l-30 37h13l28-35c1-2 1-6-1-7a188 188 0 0 0-270 42h13"/><path fill="#B3B3B3" d="M1713 2492a18 18 0 0 1 25-9 18 18 0 0 1 10 17h10a28 28 0 1 0-57 0h11c-1-3 0-5 1-8M1764 2450a5 5 0 1 0-1 10c10 1 11 7 12 14 2 9 4 18 17 24a5 5 0 0 0 4-10c-8-3-9-10-11-16-2-10-3-20-21-22M1671 2473a5 5 0 0 0-8 6c6 8 3 14-1 19l-2 2h13c4-7 7-15-2-27M2016 2500a221 221 0 0 0-70-101c-3-2-6-1-8 1l-77 100h12l70-90a209 209 0 0 1 62 90h11"/><path fill="#B3B3B3" d="M1982 2500a187 187 0 0 0-56-75c-2-2-6-2-7 0l-58 75h12l50-64a176 176 0 0 1 48 64h11"/><path fill="#B3B3B3" d="M1925 2499a15 15 0 0 1 28 1h10l-1-3a25 25 0 0 0-31-15 25 25 0 0 0-17 18h11v-1M1893 2500a5 5 0 0 0-6 0h6M3051 396a212 212 0 0 1-271 213 210 210 0 0 1-39-388 210 210 0 0 1 225 16l-129 167a5 5 0 0 0 4 8Zm-16 117c20-37 30-80 26-123 0-3-2-5-5-5l-204 16 125-161c2-3 2-6-1-8a222 222 0 0 0-347 112 220 220 0 0 0 317 258c39-21 69-53 89-89"/><path fill="#B3B3B3" d="M3020 398a178 178 0 0 1-229 178 177 177 0 0 1-33-326 177 177 0 0 1 189 13l-110 141a5 5 0 0 0 4 8Zm-13 99c17-32 25-68 22-104v-1c0-3-2-5-5-4l-172 13 106-136c1-2 1-6-1-7a189 189 0 0 0-295 94 187 187 0 0 0 269 220c33-18 59-45 76-75"/><path fill="#B3B3B3" d="M2891 454a18 18 0 0 1-8 25 18 18 0 1 1 8-25Zm11 17a28 28 0 1 0-54-16 28 28 0 0 0 54 16M2813 292a18 18 0 0 1 25-9 18 18 0 1 1-25 9Zm7-19a28 28 0 0 0-2 53 28 28 0 1 0 2-53M2822 360a5 5 0 1 0-8-6c-7 8-13 6-19 3-8-3-17-7-29 1a5 5 0 0 0 6 9c7-6 13-3 19-1 10 4 19 8 31-6M2761 427a5 5 0 1 0 4 10c10-3 14 2 17 7 6 8 11 16 26 15a5 5 0 0 0-1-10c-9 0-13-5-16-11-7-8-12-16-30-11M2988 453a5 5 0 0 0-8-7c-7 8-13 5-19 2-8-4-17-9-29-1-2 1-3 4-2 7 2 2 5 3 7 1 8-4 14-1 20 2 9 4 18 9 31-4M2779 493a18 18 0 1 1-33 17 18 18 0 0 1 33-17Zm11 16a28 28 0 1 0-55-16 28 28 0 0 0 55 16M2845 504a5 5 0 1 0-8 6c6 8 2 13-2 19-5 7-11 15-5 28a5 5 0 0 0 9-3c-3-9 1-14 4-19 7-9 13-17 2-31M2744 352a18 18 0 1 1-33 17 18 18 0 0 1 33-17Zm11 17a28 28 0 0 0-19-36 28 28 0 0 0-33 41 28 28 0 0 0 38 12c7-4 12-10 14-17M2703 400a5 5 0 0 0-1 10c10 1 11 8 12 14 2 9 3 19 17 24a5 5 0 0 0 4-9c-9-3-10-10-11-16-1-11-3-21-21-23M2864 250a5 5 0 0 0-1 10c10 1 11 7 12 14 2 9 4 18 17 24a5 5 0 0 0 4-10c-8-3-9-10-11-16-2-10-3-20-21-22M2771 273a5 5 0 1 0-8 6c6 8 3 14-1 19-6 7-11 15-6 29a5 5 0 1 0 10-4c-4-8 0-14 4-19 6-9 12-17 1-31M2891 497c-3 0-5 3-4 5 0 3 3 5 6 4 10-1 13 4 16 10 4 8 8 17 23 18a5 5 0 1 0 1-10c-9-1-12-7-15-12-5-10-9-19-27-15M3127 350a220 220 0 0 0-81-151c-3-2-6-1-8 1l-127 164a5 5 0 0 0 4 8l207-16c3 0 5-3 5-6Zm-18-40c3 12 6 24 7 36l-190 15 117-151a209 209 0 0 1 66 100"/><path fill="#B3B3B3" d="M3095 353a187 187 0 0 0-69-128c-2-2-6-2-7 0l-108 139a5 5 0 0 0 4 8l175-14a5 5 0 0 0 5-5Zm-17-34 6 30-158 12 97-125a176 176 0 0 1 55 83"/><path fill="#B3B3B3" d="M3025 299a15 15 0 0 1 28 2 15 15 0 1 1-28 10c-2-4-2-8 0-12Zm6-17a25 25 0 1 0 16 47 25 25 0 1 0-16-47M2964 342a5 5 0 0 0 10-2c-3-9 2-11 6-14 7-4 15-9 15-22a5 5 0 0 0-10 0c0 7-5 10-10 13-8 5-15 10-11 25M3051 1496a212 212 0 0 1-271 213 210 210 0 0 1-39-388 210 210 0 0 1 225 16l-129 167a5 5 0 0 0 4 8Zm-16 117c20-37 30-80 26-123 0-3-2-5-5-5l-204 16 125-161c2-3 2-6-1-8a222 222 0 0 0-347 112 220 220 0 0 0 317 258c39-21 69-53 89-89"/><path fill="#B3B3B3" d="M3020 1498a178 178 0 0 1-229 178 177 177 0 0 1-33-326 177 177 0 0 1 189 13l-110 141a5 5 0 0 0 4 8Zm-13 99c17-32 25-68 22-104v-1c0-3-2-5-5-4l-172 13 106-136c1-2 1-6-1-7a189 189 0 0 0-295 94 187 187 0 0 0 269 220c33-18 59-45 76-75"/><path fill="#B3B3B3" d="M2891 1554a18 18 0 0 1-8 25 18 18 0 0 1-26-21 18 18 0 0 1 23-12c5 1 8 4 11 8Zm11 17a28 28 0 1 0-54-16 28 28 0 0 0 54 16M2813 1392a18 18 0 0 1 25-9 18 18 0 1 1-25 9Zm7-19a28 28 0 0 0-2 53 28 28 0 1 0 2-53M2822 1460a5 5 0 1 0-8-6c-7 8-13 6-19 3-8-3-17-7-29 1a5 5 0 0 0 6 9c7-6 13-3 19-1 10 4 19 8 31-6M2761 1527a5 5 0 1 0 4 10c10-3 14 2 17 7 6 8 11 16 26 15a5 5 0 1 0-1-10c-9 0-13-5-16-11-7-8-12-16-30-11M2988 1553a5 5 0 1 0-8-7c-7 8-13 5-19 2-8-4-17-9-29-1a5 5 0 1 0 5 8c8-4 14-1 20 2 9 4 18 9 31-4M2779 1593a18 18 0 1 1-33 17 18 18 0 0 1 33-17Zm11 16a28 28 0 1 0-55-16 28 28 0 0 0 55 16M2845 1604a5 5 0 0 0-8 6c6 8 2 13-2 19-5 7-11 15-5 28a5 5 0 0 0 9-3c-3-9 1-14 4-19 7-9 13-17 2-31M2744 1452a18 18 0 1 1-33 17 18 18 0 0 1 33-17Zm11 17a28 28 0 0 0-19-36 28 28 0 0 0-33 41 28 28 0 0 0 38 12c7-4 12-10 14-17M2703 1500a5 5 0 0 0-1 10c10 1 11 8 12 14 2 9 3 19 17 24a5 5 0 1 0 4-9c-9-3-10-10-11-16-1-11-3-21-21-23M2864 1350a5 5 0 0 0-1 10c10 1 11 7 12 14 2 9 4 18 17 24a5 5 0 0 0 4-10c-8-3-9-10-11-16-2-10-3-20-21-22M2771 1373a5 5 0 1 0-8 6c6 8 3 14-1 19-6 7-11 15-6 29a5 5 0 1 0 10-4c-4-8 0-14 4-19 6-9 12-17 1-31M2891 1597a5 5 0 0 0 2 9c10-1 13 4 16 10 4 8 8 17 23 18a5 5 0 0 0 1-10c-9-1-12-7-15-12-5-10-9-19-27-15M3127 1450a220 220 0 0 0-81-151c-3-2-6-1-8 1l-127 164a5 5 0 0 0 4 8l207-16c3 0 5-3 5-6Zm-18-40c3 12 6 24 7 36l-190 15 117-151a209 209 0 0 1 66 100"/><path fill="#B3B3B3" d="M3095 1453a187 187 0 0 0-69-128c-2-2-6-2-7 0l-108 139a5 5 0 0 0 4 8l175-14a5 5 0 0 0 5-5Zm-17-34 6 30-158 12 97-125a176 176 0 0 1 55 83"/><path fill="#B3B3B3" d="M3025 1399a15 15 0 0 1 28 2 15 15 0 1 1-28 10c-2-4-2-8 0-12Zm6-17a25 25 0 1 0 16 47 25 25 0 1 0-16-47M2964 1442a5 5 0 0 0 10-2c-3-9 2-11 6-14 7-4 15-9 15-22a5 5 0 0 0-10 0c0 7-5 10-10 13-8 5-15 10-11 25M2659 2500a210 210 0 0 1 307-63l-49 63h13l47-60c2-3 2-6-1-8a222 222 0 0 0-329 68h12"/><path fill="#B3B3B3" d="M2700 2500a177 177 0 0 1 247-37l-30 37h13l28-35c1-2 1-6-1-7a188 188 0 0 0-270 42h13"/><path fill="#B3B3B3" d="M2813 2492a18 18 0 0 1 25-9 18 18 0 0 1 10 17h10a28 28 0 1 0-57 0h11c-1-3 0-5 1-8M2864 2450a5 5 0 1 0-1 10c10 1 11 7 12 14 2 9 4 18 17 24a5 5 0 0 0 4-10c-8-3-9-10-11-16-2-10-3-20-21-22M2771 2473a5 5 0 0 0-8 6c6 8 3 14-1 19l-2 2h13c4-7 7-15-2-27M3116 2500a221 221 0 0 0-70-101c-3-2-6-1-8 1l-77 100h12l70-90a209 209 0 0 1 62 90h11"/><path fill="#B3B3B3" d="M3082 2500a187 187 0 0 0-56-75c-2-2-6-2-7 0l-58 75h12l50-64a176 176 0 0 1 48 64h11"/><path fill="#B3B3B3" d="M3025 2499a15 15 0 0 1 28 1h10l-1-3a25 25 0 0 0-31-15 25 25 0 0 0-17 18h11v-1M2993 2500a5 5 0 0 0-6 0h6M4001 609a211 211 0 1 1 0-404v-11a222 222 0 0 0-165 18 220 220 0 0 0 41 407c40 12 83 13 124 1Zm0-287-64 82a5 5 0 0 0 4 8l60-5v-10l-49 4 49-63v-16"/><path fill="#B3B3B3" d="M4001 574a177 177 0 1 1 0-335v-11a189 189 0 0 0-148 13 187 187 0 0 0 35 345c36 11 76 11 113-1Zm0-252-64 82a5 5 0 0 0 4 8l60-5v-10l-49 4 49-63v-16"/><path fill="#B3B3B3" d="M3913 292a18 18 0 0 1 25-9 18 18 0 0 1-2 34 18 18 0 0 1-23-11c-2-4-2-10 0-14Zm7-19a28 28 0 0 0-2 53 28 28 0 1 0 2-53M3922 360a5 5 0 1 0-8-6c-7 8-13 6-19 3-8-3-17-7-29 1a5 5 0 0 0 6 9c7-6 13-3 19-1 10 4 19 8 31-6M3861 427a5 5 0 1 0 4 10c10-3 14 2 17 7 6 8 11 16 26 15a5 5 0 0 0-1-10c-9 0-13-5-16-11-7-8-12-16-30-11M3879 493a18 18 0 1 1-33 17 18 18 0 0 1 33-17Zm11 16a28 28 0 1 0-55-16 28 28 0 0 0 55 16M3945 504a5 5 0 1 0-8 6c6 8 2 13-2 19-5 7-11 15-5 28a5 5 0 0 0 9-3c-3-9 1-14 4-19 7-9 13-17 2-31M3844 352a18 18 0 1 1-33 17 18 18 0 0 1 33-17Zm11 17a28 28 0 0 0-19-36 28 28 0 0 0-33 41 28 28 0 0 0 38 12c7-4 12-10 14-17M3803 400a5 5 0 0 0-1 10c10 1 11 8 12 14 2 9 3 19 17 24a5 5 0 0 0 4-9c-9-3-10-10-11-16-1-11-3-21-21-23M3964 250a5 5 0 0 0-1 10c10 1 11 7 12 14 2 9 4 18 17 24a5 5 0 0 0 4-10c-8-3-9-10-11-16-2-10-3-20-21-22M3871 273a5 5 0 1 0-8 6c6 8 3 14-1 19-6 7-11 15-6 29a5 5 0 1 0 10-4c-4-8 0-14 4-19 6-9 12-17 1-31M3991 497c-3 0-5 3-4 5 0 3 3 5 6 4l8 1v-11l-10 1M4001 1709a211 211 0 1 1 0-404v-11a222 222 0 0 0-165 18 220 220 0 0 0 41 407c40 12 83 12 124 1Zm0-287-64 82a5 5 0 0 0 4 8l60-5v-10l-49 4 49-63v-16"/><path fill="#B3B3B3" d="M4001 1674a177 177 0 0 1-229-219 177 177 0 0 1 229-116v-11a189 189 0 0 0-148 13 187 187 0 0 0 35 345c36 11 76 11 113-1Zm0-252-64 82a5 5 0 0 0 4 8l60-5v-10l-49 4 49-63v-16"/><path fill="#B3B3B3" d="M3913 1392a18 18 0 0 1 25-9 18 18 0 0 1-2 34 18 18 0 0 1-23-11c-2-4-2-10 0-14Zm7-19a28 28 0 0 0-2 53 28 28 0 1 0 2-53M3922 1460a5 5 0 1 0-8-6c-7 8-13 6-19 3-8-3-17-7-29 1a5 5 0 0 0 6 9c7-6 13-3 19-1 10 4 19 8 31-6M3861 1527a5 5 0 1 0 4 10c10-3 14 2 17 7 6 8 11 16 26 15a5 5 0 1 0-1-10c-9 0-13-5-16-11-7-8-12-16-30-11M3879 1593a18 18 0 1 1-33 17 18 18 0 0 1 33-17Zm11 16a28 28 0 1 0-55-16 28 28 0 0 0 55 16M3945 1604a5 5 0 0 0-8 6c6 8 2 13-2 19-5 7-11 15-5 28a5 5 0 0 0 9-3c-3-9 1-14 4-19 7-9 13-17 2-31M3844 1452a18 18 0 1 1-33 17 18 18 0 0 1 33-17Zm11 17a28 28 0 0 0-19-36 28 28 0 0 0-33 41 28 28 0 0 0 38 12c7-4 12-10 14-17M3803 1500a5 5 0 0 0-1 10c10 1 11 8 12 14 2 9 3 19 17 24a5 5 0 1 0 4-9c-9-3-10-10-11-16-1-11-3-21-21-23M3964 1350a5 5 0 0 0-1 10c10 1 11 7 12 14 2 9 4 18 17 24a5 5 0 0 0 4-10c-8-3-9-10-11-16-2-10-3-20-21-22M3871 1373a5 5 0 1 0-8 6c6 8 3 14-1 19-6 7-11 15-6 29a5 5 0 1 0 10-4c-4-8 0-14 4-19 6-9 12-17 1-31M3991 1597a5 5 0 0 0 2 9l8 1v-11l-10 1M3759 2500a210 210 0 0 1 242-95v-11a222 222 0 0 0-254 106h12"/><path fill="#B3B3B3" d="M3800 2500a177 177 0 0 1 201-61v-11a188 188 0 0 0-214 72h13M3913 2492a18 18 0 0 1 25-9 18 18 0 0 1 10 17h10a28 28 0 1 0-57 0h11c-1-3 0-5 1-8"/><path fill="#B3B3B3" d="M3964 2450a5 5 0 1 0-1 10c10 1 11 7 12 14 2 9 4 18 17 24a5 5 0 0 0 4-10c-8-3-9-10-11-16-2-10-3-20-21-22M3871 2473a5 5 0 0 0-8 6c6 8 3 14-1 19l-2 2h13c4-7 7-15-2-27M1 243a211 211 0 1 1 161 343l8-210a5 5 0 0 0-8-4L1 507v13l2-1 156-132-7 204c-1 3 2 5 4 5a222 222 0 0 0 218-292A220 220 0 0 0 1 227v16"/><path fill="#B3B3B3" d="M25 487c-10-12-18-26-24-40v22a187 187 0 0 0 19 28c2 3 5 3 7 1l132-111-6 172c0 3 2 5 5 6a188 188 0 0 0 184-249A187 187 0 0 0 1 284v23l4-8a177 177 0 0 1 327 20 177 177 0 0 1-169 236l7-179a5 5 0 0 0-8-4L25 487"/><path fill="#B3B3B3" d="M97 366a18 18 0 0 1-9-24 18 18 0 0 1 34 2 18 18 0 0 1-11 23c-5 2-10 1-14-1Zm-19-7a28 28 0 0 0 52 3 28 28 0 0 0-35-39 28 28 0 0 0-17 36M254 453a18 18 0 1 1-36 6 18 18 0 0 1 15-21 18 18 0 0 1 21 15Zm5 19a28 28 0 0 0-28-44 28 28 0 1 0 28 44M208 402c0 3 2 6 5 6 2 0 5-2 5-5 0-11 7-12 13-14 9-2 19-4 23-18a5 5 0 1 0-9-3c-3 9-10 10-16 12-10 2-20 4-21 22M217 313a5 5 0 0 0-8-6c-6 9-12 6-18 4-9-3-18-6-29 3a5 5 0 0 0 6 8c7-5 13-3 19-1 10 3 20 6 30-8M19 424a5 5 0 1 0 10 1c1-10 8-11 14-12 9-2 19-3 25-17a5 5 0 0 0-10-4c-3 9-10 10-16 11-11 1-21 3-23 21M166 270a18 18 0 0 1 2-34 18 18 0 1 1-2 34Zm-19-8a28 28 0 0 0 52 4 28 28 0 0 0-13-38 28 28 0 0 0-39 34M105 299a5 5 0 1 0 3-9c-10-4-10-10-10-17 0-9 0-19-12-26a5 5 0 1 0-5 8c7 5 7 12 7 18 0 11 0 21 17 26M276 364a18 18 0 0 1-8-25 18 18 0 0 1 33 2 18 18 0 0 1-25 23Zm-19-7a28 28 0 0 0 36 17 28 28 0 0 0 18-36 28 28 0 0 0-53-3c-3 7-3 15-1 22M281 301a5 5 0 0 0-5-9c-9 5-14 1-18-4-7-7-14-14-28-10a5 5 0 1 0 3 9c8-2 13 3 17 8 8 7 15 14 31 6M300 444a5 5 0 1 0 3-10c-10-3-10-9-10-16 0-9 0-19-13-26a5 5 0 1 0-5 8c8 5 8 12 8 18 0 11 0 21 17 26M72 332a5 5 0 0 0-7-7c-7 7-13 5-19 1-8-4-17-8-29-1a5 5 0 1 0 5 9c8-5 14-2 19 1 10 5 19 10 31-3M1 1343a211 211 0 1 1 161 343l8-210a5 5 0 0 0-8-4L1 1607v13l2-1 156-132-7 204c-1 3 2 5 4 5a222 222 0 0 0 218-292 220 220 0 0 0-373-77v16"/><path fill="#B3B3B3" d="M25 1587c-10-12-18-26-24-40v22a188 188 0 0 0 19 28c2 3 5 3 7 1l132-111-6 172c0 3 2 5 5 6a188 188 0 0 0 184-249 187 187 0 0 0-341-32v23l4-8a177 177 0 0 1 327 20 177 177 0 0 1-169 236l7-179a5 5 0 0 0-8-4L25 1587"/><path fill="#B3B3B3" d="M97 1466a18 18 0 0 1-9-24 18 18 0 0 1 34 2 18 18 0 0 1-11 23c-5 2-10 1-14-1Zm-19-7a28 28 0 0 0 52 3 28 28 0 0 0-35-39 28 28 0 0 0-17 36M254 1553a18 18 0 1 1-36 6 18 18 0 0 1 15-21 18 18 0 0 1 21 15Zm5 19a28 28 0 0 0-28-44 28 28 0 0 0-11 51 28 28 0 0 0 39-7M208 1502a5 5 0 1 0 10 1c0-11 7-12 13-14 9-2 19-4 23-18a5 5 0 1 0-9-3c-3 9-10 10-16 12-10 2-20 4-21 22M217 1413a5 5 0 0 0-8-6c-6 9-12 6-18 4-9-3-18-6-29 3a5 5 0 0 0 6 8c7-5 13-3 19-1 10 3 20 6 30-8M19 1524a5 5 0 1 0 10 1c1-10 8-11 14-12 9-2 19-3 25-17a5 5 0 0 0-10-4c-3 9-10 10-16 11-11 1-21 3-23 21M166 1370a18 18 0 0 1 2-34 18 18 0 1 1-2 34Zm-19-8a28 28 0 0 0 52 4 28 28 0 0 0-13-38 28 28 0 0 0-39 34M105 1399a5 5 0 1 0 3-9c-10-4-10-10-10-17 0-9 0-19-12-26a5 5 0 1 0-5 8c7 5 7 12 7 18 0 11 0 21 17 26M276 1464a18 18 0 0 1-8-25 18 18 0 0 1 24-8 18 18 0 0 1 8 24 18 18 0 0 1-24 9Zm-19-7a28 28 0 0 0 36 17 28 28 0 0 0 18-36 28 28 0 0 0-53-3c-3 7-3 15-1 22M281 1401a5 5 0 0 0-5-9c-9 5-14 1-18-4-7-7-14-14-28-10a5 5 0 1 0 3 9c8-2 13 3 17 8 8 7 15 14 31 6M300 1544a5 5 0 0 0 3-10c-10-3-10-9-10-16 0-9 0-19-13-26a5 5 0 1 0-5 8c8 5 8 12 8 18 0 11 0 21 17 26M72 1432a5 5 0 0 0-7-7c-7 7-13 5-19 1-8-4-17-8-29-1a5 5 0 1 0 5 9c8-5 14-2 19 1 10 5 19 10 31-3M1 2443a211 211 0 0 1 361 57h11a220 220 0 0 0-372-73v16"/><path fill="#B3B3B3" d="m4 2500 1-1a177 177 0 0 1 319 1h12a187 187 0 0 0-233-101c-42 15-79 44-102 85v16h3"/><path fill="#B3B3B3" d="M166 2470a18 18 0 1 1 16-33 18 18 0 0 1-2 34c-5 1-10 1-14-1Zm-19-8a28 28 0 0 0 52 4 28 28 0 0 0-35-40 28 28 0 0 0-17 36M105 2499a5 5 0 0 0 3-9c-10-4-10-10-10-17 0-9 0-19-12-26a5 5 0 0 0-5 8c7 5 7 12 7 18 0 11 0 21 17 26M282 2500a5 5 0 0 0-6-8c-9 5-14 1-18-4-7-7-14-14-28-10a5 5 0 1 0 3 9c8-2 13 3 17 8l6 5h26M1100 508a212 212 0 0 1 96-332 210 210 0 0 1 258 292 210 210 0 0 1-192 118l8-210a5 5 0 0 0-8-4Zm-55-106c6 43 23 83 51 116 2 2 5 2 7 1l156-132-7 204c-1 3 2 5 4 5a222 222 0 0 0 218-292 220 220 0 0 0-408-26c-19 40-26 83-21 124"/><path fill="#B3B3B3" d="M1125 487a179 179 0 0 1-20-188 177 177 0 0 1 327 20 177 177 0 0 1-169 236l7-179a5 5 0 0 0-8-4Zm-47-88c4 36 19 70 42 98 2 3 5 3 7 1l132-111-6 172c0 3 2 5 5 6a188 188 0 0 0 184-249 187 187 0 0 0-346-22c-17 34-22 71-18 105"/><path fill="#B3B3B3" d="M1197 366a18 18 0 0 1-9-24 18 18 0 0 1 34 2 18 18 0 0 1-25 22Zm-19-7a28 28 0 0 0 52 3 28 28 0 0 0-35-39 28 28 0 0 0-17 36M1354 453a18 18 0 1 1-36 6 18 18 0 0 1 36-6Zm5 19c5-5 7-13 5-20v-1a28 28 0 0 0-51-11 28 28 0 1 0 46 32M1308 402a5 5 0 1 0 10 1c0-11 7-12 13-14 9-2 19-4 23-18a5 5 0 0 0-9-3c-3 9-10 10-16 12-10 2-20 4-21 22M1317 313a5 5 0 1 0-8-6c-6 9-12 6-18 4-9-3-18-6-29 3a5 5 0 0 0 6 8c7-5 13-3 19-1 10 3 20 6 30-8M1119 424a5 5 0 0 0 10 1c1-10 8-11 14-12 9-2 19-3 25-17a5 5 0 0 0-10-4c-3 9-10 10-16 11-11 1-21 3-23 21M1266 270a18 18 0 0 1-9-25 18 18 0 1 1 9 25Zm-19-8a28 28 0 0 0 52 4 28 28 0 0 0-35-40 28 28 0 0 0-17 36M1205 299a5 5 0 1 0 3-9c-10-4-10-10-10-17 0-9 0-19-12-26a5 5 0 1 0-5 8c7 5 7 12 7 18 0 11 0 21 17 26M1376 364a18 18 0 0 1-8-25 18 18 0 0 1 24-8 18 18 0 0 1 8 24 18 18 0 0 1-24 9Zm-19-7a28 28 0 0 0 36 17 28 28 0 0 0 18-36 28 28 0 0 0-52-3c-4 7-4 15-2 22M1381 301a5 5 0 0 0-5-9c-9 5-14 1-18-4-7-7-14-14-28-10a5 5 0 1 0 3 9c8-2 13 3 17 8 8 7 15 14 31 6M1400 444a5 5 0 0 0 3-10c-10-3-10-9-10-16 0-9 0-19-13-26a5 5 0 1 0-5 8c8 5 8 12 8 18 0 11 0 21 17 26M1172 332a5 5 0 0 0-7-7c-7 7-13 5-19 1-8-4-17-8-29-1a5 5 0 1 0 5 9c8-5 14-2 19 1 10 5 19 10 31-3M1100 1608a212 212 0 0 1 96-332 210 210 0 0 1 258 292 210 210 0 0 1-192 118l8-210a5 5 0 0 0-8-4Zm-55-106c6 43 23 83 51 116 2 2 5 2 7 1l156-132-7 204c-1 3 2 5 4 5a222 222 0 0 0 218-292 220 220 0 0 0-408-26c-19 40-26 83-21 124"/><path fill="#B3B3B3" d="M1125 1587a179 179 0 0 1-20-188 177 177 0 0 1 327 20 177 177 0 0 1-169 236l7-179a5 5 0 0 0-8-4Zm-47-88a188 188 0 0 0 42 98c2 3 5 3 7 1l132-111-6 172c0 3 2 5 5 6a188 188 0 0 0 184-249 187 187 0 0 0-346-22c-17 34-22 71-18 105"/><path fill="#B3B3B3" d="M1197 1466a18 18 0 0 1-9-24 18 18 0 0 1 34 2 18 18 0 0 1-25 22Zm-19-7a28 28 0 0 0 52 3 28 28 0 0 0-35-39 28 28 0 0 0-17 36M1354 1553a18 18 0 1 1-36 6 18 18 0 1 1 36-6Zm5 19a28 28 0 0 0-6-39 28 28 0 0 0-40 7 28 28 0 0 0 28 44c8-1 14-6 18-12M1308 1502a5 5 0 1 0 10 1c0-11 7-12 13-14 9-2 19-4 23-18a5 5 0 0 0-9-3c-3 9-10 10-16 12-10 2-20 4-21 22M1317 1413a5 5 0 1 0-8-6c-6 9-12 6-18 4-9-3-18-6-29 3a5 5 0 0 0 6 8c7-5 13-3 19-1 10 3 20 6 30-8M1119 1524a5 5 0 0 0 10 1c1-10 8-11 14-12 9-2 19-3 25-17a5 5 0 0 0-10-4c-3 9-10 10-16 11-11 1-21 3-23 21M1266 1370a18 18 0 0 1-9-25 18 18 0 1 1 9 25Zm-19-8a28 28 0 0 0 52 4 28 28 0 0 0-35-40 28 28 0 0 0-17 36M1205 1399a5 5 0 1 0 3-9c-10-4-10-10-10-17 0-9 0-19-12-26a5 5 0 1 0-5 8c7 5 7 12 7 18 0 11 0 21 17 26M1376 1464a18 18 0 0 1-8-25 18 18 0 0 1 24-8 18 18 0 0 1 8 24 18 18 0 0 1-24 9Zm-19-7a28 28 0 0 0 36 17 28 28 0 0 0 18-36 28 28 0 0 0-52-3c-4 7-4 15-2 22M1381 1401a5 5 0 0 0-5-9c-9 5-14 1-18-4-7-7-14-14-28-10a5 5 0 1 0 3 9c8-2 13 3 17 8 8 7 15 14 31 6M1400 1544a5 5 0 0 0 3-10c-10-3-10-9-10-16 0-9 0-19-13-26a5 5 0 1 0-5 8c8 5 8 12 8 18 0 11 0 21 17 26M1172 1432a5 5 0 0 0-7-7c-7 7-13 5-19 1-8-4-17-8-29-1a5 5 0 1 0 5 9c8-5 14-2 19 1 10 5 19 10 31-3M1068 2500l7-17a210 210 0 0 1 387 17h11a220 220 0 0 0-407-22l-9 22h11"/><path fill="#B3B3B3" d="m1104 2500 1-1a177 177 0 0 1 319 1h12a187 187 0 0 0-233-101 187 187 0 0 0-110 101h11"/><path fill="#B3B3B3" d="M1266 2470a18 18 0 0 1 2-34 18 18 0 0 1 23 11 18 18 0 0 1-11 24c-5 1-10 1-14-1Zm-19-8a28 28 0 0 0 52 4 28 28 0 0 0-35-40 28 28 0 0 0-17 36M1205 2499c3 1 6-1 7-3 1-3-1-6-4-6-10-4-10-10-10-17 0-9 0-19-12-26a5 5 0 0 0-5 8c7 5 7 12 7 18 0 11 0 21 17 26M1382 2500a5 5 0 0 0-6-8c-9 5-14 1-18-4-7-7-14-14-28-10a5 5 0 1 0 3 9c8-2 13 3 17 8l6 5h26M2200 508a212 212 0 0 1 96-332 210 210 0 0 1 258 292 210 210 0 0 1-192 118l8-210a5 5 0 0 0-8-4Zm-55-106c6 43 23 83 51 116 2 2 5 2 7 1l156-132-7 204c-1 3 2 5 4 5a222 222 0 0 0 218-292 220 220 0 0 0-408-26c-19 40-26 83-21 124"/><path fill="#B3B3B3" d="M2225 487a179 179 0 0 1-20-188 177 177 0 0 1 327 20 177 177 0 0 1-169 236l7-179a5 5 0 0 0-8-4Zm-47-88c4 36 19 70 42 98 2 3 5 3 7 1l132-111-6 172c0 3 2 5 5 6a188 188 0 0 0 184-249 187 187 0 0 0-346-22c-17 34-22 71-18 105"/><path fill="#B3B3B3" d="M2297 366a18 18 0 0 1-9-24 18 18 0 0 1 34 2 18 18 0 0 1-25 22Zm-19-7a28 28 0 0 0 36 18 28 28 0 0 0 3-53 28 28 0 0 0-39 35M2454 453a18 18 0 1 1-36 6 18 18 0 0 1 36-6Zm5 19c5-5 7-13 5-20v-1a28 28 0 0 0-51-11 28 28 0 1 0 46 32M2408 402a5 5 0 1 0 10 1c0-11 7-12 13-14 9-2 19-4 23-18a5 5 0 0 0-9-3c-3 9-10 10-16 12-10 2-20 4-21 22M2417 313a5 5 0 1 0-8-6c-6 9-12 6-18 4-9-3-18-6-29 3a5 5 0 0 0 6 8c7-5 13-3 19-1 10 3 20 6 30-8M2219 424a5 5 0 0 0 10 1c1-10 8-11 14-12 9-2 19-3 25-17a5 5 0 0 0-10-4c-3 9-10 10-16 11-11 1-21 3-23 21M2366 270a18 18 0 0 1-9-25 18 18 0 1 1 9 25Zm-19-8a28 28 0 0 0 52 4 28 28 0 0 0-35-40 28 28 0 0 0-17 36M2305 299a5 5 0 1 0 3-9c-10-4-10-10-10-17 0-9 0-19-12-26a5 5 0 1 0-5 8c7 5 7 12 7 18 0 11 0 21 17 26M2476 364a18 18 0 0 1-8-25 18 18 0 0 1 24-8 18 18 0 0 1 8 24 18 18 0 0 1-24 9Zm-19-7a28 28 0 0 0 52 3 28 28 0 1 0-52-3M2481 301a5 5 0 0 0-5-9c-9 5-14 1-18-4-7-7-14-14-28-10a5 5 0 1 0 3 9c8-2 13 3 17 8 8 7 15 14 31 6M2500 444a5 5 0 0 0 3-10c-10-3-10-9-10-16 0-9 0-19-13-26a5 5 0 1 0-5 8c8 5 8 12 8 18 0 11 0 21 17 26M2272 332a5 5 0 0 0-7-7c-7 7-13 5-19 1-8-4-17-8-29-1a5 5 0 1 0 5 9c8-5 14-2 19 1 10 5 19 10 31-3M2200 1608a212 212 0 0 1 96-332 210 210 0 0 1 258 292 210 210 0 0 1-192 118l8-210a5 5 0 0 0-8-4Zm-55-106c6 43 23 83 51 116 2 2 5 2 7 1l156-132-7 204c-1 3 2 5 4 5a222 222 0 0 0 218-292 220 220 0 0 0-408-26c-19 40-26 83-21 124"/><path fill="#B3B3B3" d="M2225 1587a179 179 0 0 1-20-188 177 177 0 0 1 327 20 177 177 0 0 1-169 236l7-179a5 5 0 0 0-8-4Zm-47-88a188 188 0 0 0 42 98c2 3 5 3 7 1l132-111-6 172c0 3 2 5 5 6a188 188 0 0 0 184-249 187 187 0 0 0-346-22c-17 34-22 71-18 105"/><path fill="#B3B3B3" d="M2297 1466a18 18 0 0 1-9-24 18 18 0 0 1 34 2 18 18 0 0 1-25 22Zm-19-7a28 28 0 0 0 36 18 28 28 0 0 0 3-53 28 28 0 0 0-39 35M2454 1553a18 18 0 1 1-36 6 18 18 0 1 1 36-6Zm5 19a28 28 0 0 0-6-39 28 28 0 0 0-40 7 28 28 0 0 0 28 44c8-1 14-6 18-12M2408 1502a5 5 0 1 0 10 1c0-11 7-12 13-14 9-2 19-4 23-18a5 5 0 0 0-9-3c-3 9-10 10-16 12-10 2-20 4-21 22M2417 1413a5 5 0 1 0-8-6c-6 9-12 6-18 4-9-3-18-6-29 3a5 5 0 0 0 6 8c7-5 13-3 19-1 10 3 20 6 30-8M2219 1524a5 5 0 0 0 10 1c1-10 8-11 14-12 9-2 19-3 25-17a5 5 0 0 0-10-4c-3 9-10 10-16 11-11 1-21 3-23 21M2366 1370a18 18 0 0 1-9-25 18 18 0 1 1 9 25Zm-19-8a28 28 0 0 0 52 4 28 28 0 0 0-35-40 28 28 0 0 0-17 36M2305 1399a5 5 0 1 0 3-9c-10-4-10-10-10-17 0-9 0-19-12-26a5 5 0 1 0-5 8c7 5 7 12 7 18 0 11 0 21 17 26M2476 1464a18 18 0 0 1-8-25 18 18 0 0 1 24-8 18 18 0 0 1 8 24 18 18 0 0 1-24 9Zm-19-7a28 28 0 0 0 52 3 28 28 0 1 0-52-3M2481 1401a5 5 0 0 0-5-9c-9 5-14 1-18-4-7-7-14-14-28-10a5 5 0 1 0 3 9c8-2 13 3 17 8 8 7 15 14 31 6M2500 1544a5 5 0 0 0 3-10c-10-3-10-9-10-16 0-9 0-19-13-26a5 5 0 1 0-5 8c8 5 8 12 8 18 0 11 0 21 17 26M2272 1432a5 5 0 0 0-7-7c-7 7-13 5-19 1-8-4-17-8-29-1a5 5 0 1 0 5 9c8-5 14-2 19 1 10 5 19 10 31-3M2168 2500a212 212 0 0 1 128-124 210 210 0 0 1 266 124h11a220 220 0 0 0-407-22l-9 22h11"/><path fill="#B3B3B3" d="m2204 2500 1-1a177 177 0 0 1 319 1h12a187 187 0 0 0-233-101 187 187 0 0 0-110 101h11"/><path fill="#B3B3B3" d="M2366 2470a18 18 0 0 1 2-34 18 18 0 0 1 23 11 18 18 0 0 1-11 24c-5 1-10 1-14-1Zm-19-8a28 28 0 0 0 52 4 28 28 0 0 0-35-40 28 28 0 0 0-17 36M2305 2499c3 1 6-1 7-3 1-3-1-6-4-6-10-4-10-10-10-17 0-9 0-19-12-26a5 5 0 0 0-5 8c7 5 7 12 7 18 0 11 0 21 17 26M2482 2500a5 5 0 0 0-6-8c-9 5-14 1-18-4-7-7-14-14-28-10a5 5 0 1 0 3 9c8-2 13 3 17 8l6 5h26M3300 508a212 212 0 0 1 96-332 210 210 0 0 1 258 292 210 210 0 0 1-192 118l8-210a5 5 0 0 0-8-4Zm-55-106c6 43 23 83 51 116 2 2 5 2 7 1l156-132-7 204c-1 3 2 5 4 5a222 222 0 0 0 218-292 220 220 0 0 0-408-26c-19 40-26 83-21 124"/><path fill="#B3B3B3" d="M3325 487a179 179 0 0 1-20-188 177 177 0 0 1 327 20 177 177 0 0 1-169 236l7-179a5 5 0 0 0-8-4Zm-47-88c4 36 19 70 42 98 2 3 5 3 7 1l132-111-6 172c0 3 2 5 5 6a188 188 0 0 0 184-249 187 187 0 0 0-346-22c-17 34-22 71-18 105"/><path fill="#B3B3B3" d="M3397 366a18 18 0 0 1-9-24 18 18 0 0 1 34 2 18 18 0 0 1-25 22Zm-19-7a28 28 0 0 0 36 18 28 28 0 0 0 3-53 28 28 0 0 0-39 35M3554 453a18 18 0 1 1-36 6 18 18 0 0 1 36-6Zm5 19c5-5 7-13 5-20v-1a28 28 0 0 0-51-11 28 28 0 1 0 46 32M3508 402a5 5 0 1 0 10 1c0-11 7-12 13-14 9-2 19-4 23-18a5 5 0 0 0-9-3c-3 9-10 10-16 12-10 2-20 4-21 22M3517 313a5 5 0 1 0-8-6c-6 9-12 6-18 4-9-3-18-6-29 3a5 5 0 0 0 6 8c7-5 13-3 19-1 10 3 20 6 30-8M3319 424a5 5 0 0 0 10 1c1-10 8-11 14-12 9-2 19-3 25-17a5 5 0 0 0-10-4c-3 9-10 10-16 11-11 1-21 3-23 21M3466 270a18 18 0 0 1-9-25 18 18 0 1 1 9 25Zm-19-8a28 28 0 0 0 52 4 28 28 0 0 0-35-40 28 28 0 0 0-17 36M3405 299a5 5 0 1 0 3-9c-10-4-10-10-10-17 0-9 0-19-12-26a5 5 0 1 0-5 8c7 5 7 12 7 18 0 11 0 21 17 26M3576 364a18 18 0 0 1-8-25 18 18 0 0 1 24-8 18 18 0 0 1 8 24 18 18 0 0 1-24 9Zm-19-7a28 28 0 0 0 52 3 28 28 0 0 0-13-38 28 28 0 0 0-39 35M3581 301a5 5 0 0 0-5-9c-9 5-14 1-18-4-7-7-14-14-28-10a5 5 0 1 0 3 9c8-2 13 3 17 8 8 7 15 14 31 6M3600 444a5 5 0 0 0 3-10c-10-3-10-9-10-16 0-9 0-19-13-26a5 5 0 1 0-5 8c8 5 8 12 8 18 0 11 0 21 17 26M3372 332a5 5 0 0 0-7-7c-7 7-13 5-19 1-8-4-17-8-29-1a5 5 0 1 0 5 9c8-5 14-2 19 1 10 5 19 10 31-3M3300 1608a212 212 0 0 1 96-332 210 210 0 0 1 258 292 210 210 0 0 1-192 118l8-210a5 5 0 0 0-8-4Zm-55-106c6 43 23 83 51 116 2 2 5 2 7 1l156-132-7 204c-1 3 2 5 4 5a222 222 0 0 0 218-292 220 220 0 0 0-408-26c-19 40-26 83-21 124"/><path fill="#B3B3B3" d="M3325 1587a179 179 0 0 1-20-188 177 177 0 0 1 327 20 177 177 0 0 1-169 236l7-179a5 5 0 0 0-8-4Zm-47-88a188 188 0 0 0 42 98c2 3 5 3 7 1l132-111-6 172c0 3 2 5 5 6a188 188 0 0 0 184-249 187 187 0 0 0-346-22c-17 34-22 71-18 105"/><path fill="#B3B3B3" d="M3397 1466a18 18 0 0 1-9-24 18 18 0 0 1 34 2 18 18 0 0 1-25 22Zm-19-7a28 28 0 0 0 36 18 28 28 0 0 0 3-53 28 28 0 0 0-39 35M3554 1553a18 18 0 1 1-36 6 18 18 0 1 1 36-6Zm5 19a28 28 0 0 0-6-39 28 28 0 0 0-40 7 28 28 0 0 0 28 44c8-1 14-6 18-12M3508 1502a5 5 0 1 0 10 1c0-11 7-12 13-14 9-2 19-4 23-18a5 5 0 0 0-9-3c-3 9-10 10-16 12-10 2-20 4-21 22M3517 1413a5 5 0 1 0-8-6c-6 9-12 6-18 4-9-3-18-6-29 3a5 5 0 0 0 6 8c7-5 13-3 19-1 10 3 20 6 30-8M3319 1524a5 5 0 0 0 10 1c1-10 8-11 14-12 9-2 19-3 25-17a5 5 0 0 0-10-4c-3 9-10 10-16 11-11 1-21 3-23 21M3466 1370a18 18 0 0 1-9-25 18 18 0 1 1 9 25Zm-19-8a28 28 0 0 0 52 4 28 28 0 0 0-35-40 28 28 0 0 0-17 36M3405 1399a5 5 0 1 0 3-9c-10-4-10-10-10-17 0-9 0-19-12-26a5 5 0 1 0-5 8c7 5 7 12 7 18 0 11 0 21 17 26M3576 1464a18 18 0 0 1-8-25 18 18 0 0 1 24-8 18 18 0 0 1 8 24 18 18 0 0 1-24 9Zm-19-7a28 28 0 0 0 52 3 28 28 0 0 0-13-38 28 28 0 0 0-39 35M3581 1401a5 5 0 0 0-5-9c-9 5-14 1-18-4-7-7-14-14-28-10a5 5 0 1 0 3 9c8-2 13 3 17 8 8 7 15 14 31 6M3600 1544a5 5 0 0 0 3-10c-10-3-10-9-10-16 0-9 0-19-13-26a5 5 0 1 0-5 8c8 5 8 12 8 18 0 11 0 21 17 26M3372 1432a5 5 0 0 0-7-7c-7 7-13 5-19 1-8-4-17-8-29-1a5 5 0 1 0 5 9c8-5 14-2 19 1 10 5 19 10 31-3M3268 2500a212 212 0 0 1 128-124 210 210 0 0 1 266 124h11a220 220 0 0 0-407-22l-9 22h11"/><path fill="#B3B3B3" d="m3304 2500 1-1a177 177 0 0 1 319 1h12a187 187 0 0 0-233-101 187 187 0 0 0-110 101h11"/><path fill="#B3B3B3" d="M3466 2470a18 18 0 0 1 2-34 18 18 0 0 1 23 11 18 18 0 0 1-25 23Zm-19-8a28 28 0 0 0 52 4 28 28 0 0 0-35-40 28 28 0 0 0-17 36M3405 2499c3 1 6-1 7-3 1-3-1-6-4-6-10-4-10-10-10-17 0-9 0-19-12-26a5 5 0 0 0-5 8c7 5 7 12 7 18 0 11 0 21 17 26M3582 2500a5 5 0 0 0-6-8c-9 5-14 1-18-4-7-7-14-14-28-10a5 5 0 1 0 3 9c8-2 13 3 17 8l6 5h26M1 617l38-14a5 5 0 0 0 1-9L1 573v12l24 12-24 9v11M1 1717l38-14a5 5 0 0 0 1-9l-39-21v12l24 12-24 9v11M949 500a219 219 0 0 0-11 171c1 3 3 4 6 3l195-71a5 5 0 0 0 1-9l-184-97c-3-1-6 0-7 3Zm-6 43c3-12 8-23 13-34l169 88-179 66a209 209 0 0 1-3-120M949 1600a219 219 0 0 0-11 171c1 3 3 4 6 3l195-71a5 5 0 0 0 1-9l-184-97a5 5 0 0 0-7 3Zm-6 43c3-12 8-23 13-34l169 88-179 66a210 210 0 0 1-3-120M2049 500a220 220 0 0 0-11 171c1 3 3 4 6 3l195-71a5 5 0 0 0 1-9l-184-97c-3-1-6 0-7 3Zm-6 43c3-12 8-23 13-34l169 88-179 66a209 209 0 0 1-3-120M2049 1600a220 220 0 0 0-11 171c1 3 3 4 6 3l195-71a5 5 0 0 0 1-9l-184-97a5 5 0 0 0-7 3Zm-6 43c3-12 8-23 13-34l169 88-179 66a209 209 0 0 1-3-120M3149 500a220 220 0 0 0-11 171c1 3 3 4 6 3l195-71a5 5 0 0 0 1-9l-184-97c-3-1-6 0-7 3Zm-6 43c3-12 8-23 13-34l169 88-179 66a209 209 0 0 1-3-120M3149 1600a220 220 0 0 0-11 171c1 3 3 4 6 3l195-71a5 5 0 0 0 1-9l-184-97a5 5 0 0 0-7 3Zm-6 43c3-12 8-23 13-34l169 88-179 66a209 209 0 0 1-3-120"/><path fill="#B3B3B3" d="m1 617 38-14a5 5 0 0 0 1-9L1 573v12l24 12-24 9v11M1 1717l38-14a5 5 0 0 0 1-9l-39-21v12l24 12-24 9v11M977 515a187 187 0 0 0-9 145c1 3 4 4 6 3l165-60a5 5 0 0 0 1-9l-156-82a5 5 0 0 0-7 3Zm-3 37 10-28 141 73-149 55a177 177 0 0 1-2-100M977 1615a187 187 0 0 0-9 145c1 3 4 4 6 3l165-60a5 5 0 0 0 1-9l-156-82a5 5 0 0 0-7 3Zm-3 37 10-28 141 73-149 55a176 176 0 0 1-2-100M2077 515a187 187 0 0 0-9 145c1 3 4 4 6 3l165-60a5 5 0 0 0 1-9l-156-82a5 5 0 0 0-7 3Zm-3 37 10-28 141 73-149 55a175 175 0 0 1-2-100M2077 1615a187 187 0 0 0-9 145c1 3 4 4 6 3l165-60a5 5 0 0 0 1-9l-156-82c-2-1-5 0-6 2l-1 1Zm-3 37 10-28 141 73-149 55a175 175 0 0 1-2-100M3177 515a187 187 0 0 0-9 145c1 3 4 4 6 3l165-60a5 5 0 0 0 1-9l-156-82a5 5 0 0 0-7 3Zm-3 37 10-28 141 73-149 55a175 175 0 0 1-2-100M3177 1615a187 187 0 0 0-9 145c1 3 4 4 6 3l165-60a5 5 0 0 0 1-9l-156-82c-2-1-5 0-6 2l-1 1Zm-3 37 10-28 141 73-149 55a175 175 0 0 1-2-100"/><path fill="#B3B3B3" d="M1008 597a15 15 0 0 1-21-5 15 15 0 1 1 26-16 15 15 0 0 1-5 21Zm-14 12a25 25 0 0 0 30-19 25 25 0 0 0-37-27 25 25 0 0 0 7 46M1008 1697a15 15 0 1 1-16-25 15 15 0 0 1 23 16c-1 3-4 7-7 9Zm-14 12a25 25 0 0 0 27-38 25 25 0 0 0-34-8 25 25 0 0 0 7 46M2108 597a15 15 0 0 1-21-5 15 15 0 1 1 26-16 15 15 0 0 1-5 21Zm-14 12a25 25 0 0 0 30-19 25 25 0 0 0-37-27 25 25 0 0 0 7 46M2108 1697a15 15 0 1 1-16-25 15 15 0 0 1 23 16c-1 3-4 7-7 9Zm-14 12a25 25 0 0 0 27-38 25 25 0 0 0-34-8 25 25 0 0 0 7 46M3208 597a15 15 0 0 1-21-5 15 15 0 1 1 26-16 15 15 0 0 1-5 21Zm-14 12a25 25 0 0 0 30-19 25 25 0 0 0-37-27 25 25 0 0 0 7 46M3208 1697a15 15 0 1 1-16-25 15 15 0 0 1 23 16c-1 3-4 7-7 9Zm-14 12a25 25 0 0 0 27-38 25 25 0 0 0-34-8 25 25 0 0 0 7 46M1083 593a5 5 0 1 0-10-3c-2 8-7 8-13 8-8 0-17 0-23 11a5 5 0 0 0 8 5c4-6 10-6 15-6 9 1 18 1 23-15M1083 1693a5 5 0 1 0-10-3c-2 8-7 8-13 8-8 0-17 0-23 11a5 5 0 0 0 8 5c4-6 10-6 15-6 9 1 18 1 23-15M2183 593a5 5 0 1 0-10-3c-2 8-7 8-13 8-8 0-17 0-23 11a5 5 0 0 0 8 5c4-6 10-6 15-6 9 1 18 1 23-15M2183 1693a5 5 0 1 0-10-3c-2 8-7 8-13 8-8 0-17 0-23 11a5 5 0 0 0 8 5c4-6 10-6 15-6 9 1 18 1 23-15M3283 593a5 5 0 1 0-10-3c-2 8-7 8-13 8-8 0-17 0-23 11a5 5 0 0 0 8 5c4-6 10-6 15-6 9 1 18 1 23-15M3283 1693a5 5 0 1 0-10-3c-2 8-7 8-13 8-8 0-17 0-23 11a5 5 0 0 0 8 5c4-6 10-6 15-6 9 1 18 1 23-15M3188 0a210 210 0 0 0 233 81c45-13 85-41 112-81h13a220 220 0 0 1-370 0h12"/><path fill="#B3B3B3" d="M3230 0a178 178 0 0 0 259 0h13a187 187 0 0 1-285 0h13"/><path fill="#B3B3B3" d="M3431 0h16c-5 2-10 2-16 0M3366 0v1c6 7 11 15 6 28a5 5 0 0 1-9-4c3-8-1-13-5-18l-4-7h12M3284 0c-3 3-7 5-14 6a5 5 0 0 1-6-6h20M3150 967a212 212 0 0 0 111 197 210 210 0 0 0 302-246 210 210 0 0 0-328-109l130 167a5 5 0 0 1-4 8Zm17 118c-20-38-30-81-27-124 1-2 3-4 6-4l204 16-126-162c-1-2-1-5 1-7a222 222 0 0 1 348 111 220 220 0 0 1-317 258c-39-21-69-52-89-88"/><path fill="#B3B3B3" d="M3182 970a178 178 0 0 0 229 178 177 177 0 0 0 33-326 177 177 0 0 0-189 12l110 142a5 5 0 0 1-4 8Zm13 98c-17-31-25-67-23-104 0-3 3-5 6-5l172 14-106-137c-2-2-1-5 1-7a189 189 0 0 1 294 95 187 187 0 0 1-269 219c-33-18-58-44-75-75"/><path fill="#B3B3B3" d="M3311 1026a18 18 0 0 0 7 25 18 18 0 1 0-7-25Zm-11 17a28 28 0 1 1 54-16 28 28 0 0 1-54 16M3388 864a18 18 0 0 0-24-9 18 18 0 0 0-9 24 18 18 0 1 0 33-15Zm-7-19a28 28 0 0 1 3 52 28 28 0 0 1-38-13 28 28 0 0 1 35-39M3380 932a5 5 0 0 1 8-7c7 9 12 6 19 4 8-4 17-7 29 1a5 5 0 0 1-6 8c-7-5-14-2-19 0-10 4-20 8-31-6M3440 999a5 5 0 1 1-3 10c-10-4-14 1-18 7-5 7-11 15-25 14a5 5 0 0 1 1-10c8 1 12-5 16-10 6-9 12-17 29-11M3214 1024a5 5 0 0 1 7-6c8 7 13 4 20 1 8-4 16-8 29-1 2 2 3 5 1 7-1 3-4 3-7 2-7-5-13-2-19 1-9 5-18 10-31-4M3423 1064a18 18 0 1 0 32 18 18 18 0 0 0-32-18Zm-11 17a28 28 0 1 1 54-16 28 28 0 0 1-54 16M3357 1075a5 5 0 1 1 8 7c-6 8-3 13 1 19 6 7 11 15 6 28a5 5 0 0 1-9-4c3-8-1-13-5-18-6-9-12-17-1-32M3458 924a18 18 0 1 0 32 17 18 18 0 0 0-32-17Zm-11 16a28 28 0 0 1 19-35 28 28 0 0 1 33 41 28 28 0 0 1-38 11c-7-3-12-10-14-17M3499 972a5 5 0 1 1 1 10c-11 1-12 7-13 14-1 9-3 19-16 24a5 5 0 0 1-4-9c8-4 9-10 10-17 2-10 4-20 22-22M3338 821a5 5 0 0 1 1 10c-10 2-12 8-13 14-1 9-3 19-17 24a5 5 0 1 1-3-9c8-3 9-10 10-16 2-11 4-21 22-23M3431 844a5 5 0 1 1 8 7c-7 8-3 13 1 19 5 7 11 15 5 28a5 5 0 1 1-9-4c3-8-1-13-4-18-6-9-12-17-1-32M3311 1068c3 1 5 3 4 6 0 3-3 5-6 4-10-2-13 4-16 10-4 8-9 17-23 18a5 5 0 1 1-1-10c9-1 12-7 15-13 5-9 9-18 27-15M3075 922a220 220 0 0 1 81-151c2-2 5-1 7 1l128 164a5 5 0 0 1-5 8l-207-16c-2-1-5-3-4-6Zm18-40c-4 12-6 24-8 36l191 15-117-151a209 209 0 0 0-66 100"/><path fill="#B3B3B3" d="M3107 924a187 187 0 0 1 69-128c2-1 5-1 7 1l108 139a5 5 0 0 1-5 8l-175-14a5 5 0 0 1-4-6Zm17-33-7 29 159 13-98-126a176 176 0 0 0-54 84"/><path fill="#B3B3B3" d="M3176 871a15 15 0 0 0-27 1 15 15 0 1 0 28 10c1-3 1-7-1-11Zm-5-17a25 25 0 1 1-16 47 25 25 0 1 1 16-47M3238 914a5 5 0 0 1-10-3c2-8-2-11-7-14-7-4-14-8-14-21a5 5 0 0 1 10 0c0 7 5 10 9 13 8 5 16 9 12 25M3150 2067a212 212 0 0 0 111 197 210 210 0 0 0 302-246 210 210 0 0 0-328-109l130 167a5 5 0 0 1-4 8Zm17 118c-20-38-30-81-27-124 1-2 3-4 6-4l204 16-126-162c-1-2-1-5 1-7a222 222 0 0 1 348 111 220 220 0 0 1-317 258c-39-21-69-52-89-88"/><path fill="#B3B3B3" d="M3182 2070a178 178 0 0 0 229 178 177 177 0 0 0 33-326 177 177 0 0 0-189 12l110 142a5 5 0 0 1-4 8Zm13 98c-17-31-25-67-23-104 0-3 3-5 6-5l172 14-106-137c-2-2-1-5 1-7a188 188 0 0 1 294 95 187 187 0 0 1-269 219c-33-18-58-44-75-75"/><path fill="#B3B3B3" d="M3311 2126a18 18 0 0 0 7 25 18 18 0 0 0 26-22 18 18 0 0 0-22-12c-5 2-9 5-11 9Zm-11 17a28 28 0 1 1 54-16 28 28 0 0 1-54 16M3388 1964a18 18 0 0 0-24-9 18 18 0 0 0-9 24 18 18 0 1 0 33-15Zm-7-19a28 28 0 0 1 3 52 28 28 0 0 1-38-13 28 28 0 0 1 35-39M3380 2032a5 5 0 0 1 8-7c7 9 12 6 19 4 8-4 17-7 29 1a5 5 0 1 1-6 8c-7-5-14-2-19 0-10 4-20 8-31-6M3440 2099a5 5 0 0 1-3 10c-10-4-14 1-18 7-5 7-11 15-25 14a5 5 0 1 1 1-10c8 1 12-5 16-10 6-9 12-17 29-11M3214 2124a5 5 0 0 1 7-6c8 7 13 4 20 1 8-4 16-8 29-1a5 5 0 1 1-6 9c-7-5-13-2-19 1-9 5-18 10-31-4M3423 2164a18 18 0 1 0 32 18 18 18 0 0 0-32-18Zm-11 17a28 28 0 1 1 54-16 28 28 0 0 1-19 35 28 28 0 0 1-35-19M3357 2175a5 5 0 0 1 8 6c-6 9-3 14 1 20 6 7 11 15 6 28a5 5 0 0 1-9-4c3-8-1-13-5-18-6-9-12-17-1-32M3458 2024a18 18 0 1 0 32 17 18 18 0 0 0-32-17Zm-11 16a28 28 0 0 1 19-35 28 28 0 0 1 35 19 28 28 0 0 1-19 35 28 28 0 0 1-35-19M3499 2072a5 5 0 1 1 1 10c-11 1-12 7-13 14-1 9-3 19-16 24a5 5 0 1 1-4-9c8-4 9-10 10-17 2-10 4-20 22-22M3338 1921a5 5 0 1 1 1 10c-10 2-12 8-13 14-1 9-3 19-17 24a5 5 0 0 1-3-9c8-3 9-10 10-16 2-11 4-21 22-23M3431 1944a5 5 0 0 1 8 7c-7 8-3 13 1 19 5 7 11 15 5 28a5 5 0 0 1-9-4c3-8-1-13-4-18-6-9-12-17-1-32M3311 2168a5 5 0 0 1-2 10c-10-2-13 4-16 10-4 8-9 17-23 18a5 5 0 0 1-1-10c9-1 12-7 15-13 5-9 9-18 27-15M3075 2022a220 220 0 0 1 81-151c2-2 5-1 7 1l128 164a5 5 0 0 1-5 8l-207-16a5 5 0 0 1-4-6Zm18-40c-4 12-6 24-8 36l191 15-117-151a209 209 0 0 0-66 100"/><path fill="#B3B3B3" d="M3107 2024a187 187 0 0 1 69-128c2-1 5-1 7 1l108 139a5 5 0 0 1-5 8l-175-14a5 5 0 0 1-4-6Zm17-33-7 29 159 13-98-126a176 176 0 0 0-54 84"/><path fill="#B3B3B3" d="M3176 1971a15 15 0 0 0-27 1 15 15 0 0 0 20 19 15 15 0 0 0 7-20Zm-5-17a25 25 0 0 1 3 46 25 25 0 0 1-34-12 25 25 0 0 1 12-33c6-3 13-3 19-1M3238 2014a5 5 0 0 1-10-3c2-8-2-11-7-14-7-4-14-8-14-21a5 5 0 1 1 10 0c0 7 5 10 9 13 8 5 16 9 12 25M2088 0a210 210 0 0 0 233 81c45-13 85-41 112-81h13a220 220 0 0 1-370 0h12"/><path fill="#B3B3B3" d="M2130 0a178 178 0 0 0 259 0h13a187 187 0 0 1-285 0h13"/><path fill="#B3B3B3" d="M2331 0h16c-5 2-10 2-16 0M2266 0v1c6 7 11 15 6 28a5 5 0 0 1-9-4c3-8-1-13-5-18l-4-7h12M2184 0c-3 3-7 5-14 6a5 5 0 0 1-6-6h20M2050 967a212 212 0 0 0 111 197 210 210 0 0 0 302-246 210 210 0 0 0-328-109l130 167a5 5 0 0 1-4 8Zm17 118c-20-38-30-81-27-124 1-2 3-4 6-4l204 16-126-162c-1-2-1-5 1-7a222 222 0 0 1 348 111 220 220 0 0 1-317 258c-39-21-69-52-89-88"/><path fill="#B3B3B3" d="M2082 970a178 178 0 0 0 229 178 177 177 0 0 0 33-326 177 177 0 0 0-189 12l110 142a5 5 0 0 1-4 8Zm13 98c-17-31-25-67-23-104 0-3 3-5 6-5l172 14-106-137c-2-2-1-5 1-7a189 189 0 0 1 294 95 187 187 0 0 1-269 219c-33-18-58-44-75-75"/><path fill="#B3B3B3" d="M2211 1026a18 18 0 0 0 7 25 18 18 0 1 0-7-25Zm-11 17a28 28 0 1 1 54-16 28 28 0 0 1-54 16M2288 864a18 18 0 0 0-24-9 18 18 0 1 0 24 9Zm-7-19a28 28 0 0 1 3 52 28 28 0 0 1-38-13 28 28 0 0 1 35-39M2280 932a5 5 0 0 1 8-7c7 9 12 6 19 4 8-4 17-7 29 1a5 5 0 0 1-6 8c-7-5-14-2-19 0-10 4-20 8-31-6M2340 999a5 5 0 1 1-3 10c-10-4-14 1-18 7-5 7-11 15-25 14a5 5 0 0 1 1-10c8 1 12-5 16-10 6-9 12-17 29-11M2114 1024a5 5 0 0 1 7-6c8 7 13 4 20 1 8-4 16-8 29-1 2 2 3 5 1 7-1 3-4 3-7 2-7-5-13-2-19 1-9 5-18 10-31-4M2323 1064a18 18 0 1 0 32 18 18 18 0 0 0-32-18Zm-11 17a28 28 0 1 1 54-16 28 28 0 0 1-54 16M2257 1075a5 5 0 1 1 8 7c-6 8-3 13 1 19 6 7 11 15 6 28a5 5 0 0 1-9-4c3-8-1-13-5-18-6-9-12-17-1-32M2358 924a18 18 0 1 0 32 17 18 18 0 0 0-32-17Zm-11 16a28 28 0 0 1 19-35 28 28 0 0 1 33 41 28 28 0 0 1-38 11c-7-3-12-10-14-17M2399 972a5 5 0 1 1 1 10c-11 1-12 7-13 14-1 9-3 19-16 24-3 1-5 0-7-3-1-2 1-5 3-6 8-4 9-10 10-17 2-10 4-20 22-22M2238 821a5 5 0 0 1 1 10c-10 2-12 8-13 14-1 9-3 19-17 24a5 5 0 1 1-3-9c8-3 9-10 10-16 2-11 4-21 22-23M2331 844a5 5 0 1 1 8 7c-7 8-3 13 1 19 5 7 11 15 5 28a5 5 0 1 1-9-4c3-8-1-13-4-18-6-9-12-17-1-32M2211 1068c3 1 5 3 4 6 0 3-3 5-6 4-10-2-13 4-16 10-4 8-9 17-23 18a5 5 0 1 1-1-10c9-1 12-7 15-13 5-9 9-18 27-15M1975 922a220 220 0 0 1 81-151c2-2 5-1 7 1l128 164a5 5 0 0 1-5 8l-207-16c-2-1-5-3-4-6Zm18-40c-4 12-6 24-8 36l191 15-117-151a209 209 0 0 0-66 100"/><path fill="#B3B3B3" d="M2007 924a187 187 0 0 1 69-128c2-1 5-1 7 1l108 139a5 5 0 0 1-5 8l-175-14a5 5 0 0 1-4-6Zm17-33-7 29 159 13-98-126a176 176 0 0 0-54 84"/><path fill="#B3B3B3" d="M2076 871a15 15 0 0 0-27 1 15 15 0 1 0 28 10c1-3 1-7-1-11Zm-5-17a25 25 0 1 1-16 47 25 25 0 1 1 16-47M2138 914a5 5 0 0 1-10-3c2-8-2-11-7-14-7-4-14-8-14-21a5 5 0 0 1 10 0c0 7 5 10 9 13 8 5 16 9 12 25M2050 2067a212 212 0 0 0 111 197 210 210 0 0 0 302-246 210 210 0 0 0-328-109l130 167a5 5 0 0 1-4 8Zm17 118c-20-38-30-81-27-124 1-2 3-4 6-4l204 16-126-162c-1-2-1-5 1-7a222 222 0 0 1 348 111 220 220 0 0 1-317 258c-39-21-69-52-89-88"/><path fill="#B3B3B3" d="M2082 2070a178 178 0 0 0 229 178 177 177 0 0 0 33-326 177 177 0 0 0-189 12l110 142a5 5 0 0 1-4 8Zm13 98c-17-31-25-67-23-104 0-3 3-5 6-5l172 14-106-137c-2-2-1-5 1-7a188 188 0 0 1 294 95 187 187 0 0 1-269 219c-33-18-58-44-75-75"/><path fill="#B3B3B3" d="M2211 2126a18 18 0 0 0 7 25 18 18 0 0 0 26-22 18 18 0 0 0-22-12c-5 2-9 5-11 9Zm-11 17a28 28 0 1 1 54-16 28 28 0 0 1-54 16M2288 1964a18 18 0 0 0-24-9 18 18 0 1 0 16 33 18 18 0 0 0 8-24Zm-7-19a28 28 0 0 1 3 52 28 28 0 0 1-38-13 28 28 0 0 1 35-39M2280 2032a5 5 0 0 1 8-7c7 9 12 6 19 4 8-4 17-7 29 1a5 5 0 1 1-6 8c-7-5-14-2-19 0-10 4-20 8-31-6M2340 2099a5 5 0 0 1-3 10c-10-4-14 1-18 7-5 7-11 15-25 14a5 5 0 1 1 1-10c8 1 12-5 16-10 6-9 12-17 29-11M2114 2124a5 5 0 0 1 7-6c8 7 13 4 20 1 8-4 16-8 29-1a5 5 0 1 1-6 9c-7-5-13-2-19 1-9 5-18 10-31-4M2323 2164a18 18 0 1 0 32 18 18 18 0 0 0-32-18Zm-11 17a28 28 0 1 1 54-16 28 28 0 0 1-19 35 28 28 0 0 1-35-19M2257 2175a5 5 0 0 1 8 6c-6 9-3 14 1 20 6 7 11 15 6 28a5 5 0 0 1-9-4c3-8-1-13-5-18-6-9-12-17-1-32M2358 2024a18 18 0 1 0 32 17 18 18 0 0 0-32-17Zm-11 16a28 28 0 0 1 19-35 28 28 0 0 1 35 19 28 28 0 0 1-19 35 28 28 0 0 1-35-19M2399 2072a5 5 0 1 1 1 10c-11 1-12 7-13 14-1 9-3 19-16 24a5 5 0 0 1-4-9c8-4 9-10 10-17 2-10 4-20 22-22M2238 1921a5 5 0 1 1 1 10c-10 2-12 8-13 14-1 9-3 19-17 24a5 5 0 0 1-3-9c8-3 9-10 10-16 2-11 4-21 22-23M2331 1944a5 5 0 0 1 8 7c-7 8-3 13 1 19 5 7 11 15 5 28a5 5 0 0 1-9-4c3-8-1-13-4-18-6-9-12-17-1-32M2211 2168a5 5 0 0 1-2 10c-10-2-13 4-16 10-4 8-9 17-23 18a5 5 0 0 1-1-10c9-1 12-7 15-13 5-9 9-18 27-15M1975 2022a220 220 0 0 1 81-151c2-2 5-1 7 1l128 164a5 5 0 0 1-5 8l-207-16a5 5 0 0 1-4-6Zm18-40c-4 12-6 24-8 36l191 15-117-151a209 209 0 0 0-66 100"/><path fill="#B3B3B3" d="M2007 2024a187 187 0 0 1 69-128c2-1 5-1 7 1l108 139a5 5 0 0 1-5 8l-175-14a5 5 0 0 1-4-6Zm17-33-7 29 159 13-98-126a176 176 0 0 0-54 84"/><path fill="#B3B3B3" d="M2076 1971a15 15 0 0 0-27 1 15 15 0 0 0 20 19 15 15 0 0 0 7-20Zm-5-17a25 25 0 0 1 3 46 25 25 0 0 1-34-12 25 25 0 0 1 12-33c6-3 13-3 19-1M2138 2014a5 5 0 0 1-10-3c2-8-2-11-7-14-7-4-14-8-14-21a5 5 0 1 1 10 0c0 7 5 10 9 13 8 5 16 9 12 25M988 0a210 210 0 0 0 345 0h13a220 220 0 0 1-370 0h12"/><path fill="#B3B3B3" d="M1030 0a178 178 0 0 0 259 0h13a187 187 0 0 1-285 0h13"/><path fill="#B3B3B3" d="M1231 0h16c-5 2-10 2-16 0M1166 0v1c6 7 11 15 6 28a5 5 0 0 1-9-4c3-8-1-13-5-18l-4-7h12M1084 0c-3 3-7 5-14 6a5 5 0 0 1-6-6h20M950 967a212 212 0 0 0 271 214 210 210 0 0 0 40-388 210 210 0 0 0-226 16l130 167a5 5 0 0 1-4 8Zm17 118c-20-38-30-81-27-124 1-2 3-4 6-4l204 16-126-162c-1-2-1-5 1-7a222 222 0 0 1 348 111 220 220 0 0 1-317 258c-39-21-69-52-89-88"/><path fill="#B3B3B3" d="M982 970a178 178 0 0 0 229 178 177 177 0 0 0 33-326 177 177 0 0 0-189 12l110 142a5 5 0 0 1-4 8Zm13 98a189 189 0 0 1-23-104c0-3 3-5 6-5l172 14-106-137c-2-2-1-5 1-7a189 189 0 0 1 294 95 187 187 0 0 1-269 219c-33-18-58-44-75-75"/><path fill="#B3B3B3" d="M1111 1026a18 18 0 0 0 7 25 18 18 0 1 0-7-25Zm-11 17a28 28 0 1 1 54-16 28 28 0 0 1-54 16M1188 864a18 18 0 0 0-24-9 18 18 0 0 0 2 34 18 18 0 0 0 23-11c2-5 2-10-1-14Zm-7-19a28 28 0 0 1 3 52 28 28 0 0 1-38-13 28 28 0 0 1 35-39M1180 932a5 5 0 0 1 8-7c7 9 12 6 19 4 8-4 17-7 29 1a5 5 0 0 1-6 8c-7-5-14-2-19 0-10 4-20 8-31-6M1240 999a5 5 0 1 1-3 10c-10-4-14 1-18 7-5 7-11 15-25 14a5 5 0 0 1 1-10c8 1 12-5 16-10 6-9 12-17 29-11M1014 1024a5 5 0 0 1 7-6c8 7 13 4 20 1 8-4 16-8 29-1 2 2 3 5 1 7-1 3-4 3-7 2-7-5-13-2-19 1-9 5-18 10-31-4M1223 1064a18 18 0 1 0 32 18 18 18 0 0 0-32-18Zm-11 17a28 28 0 1 1 54-16 28 28 0 0 1-54 16M1157 1075a5 5 0 1 1 8 7c-6 8-3 13 1 19 6 7 11 15 6 28a5 5 0 0 1-9-4c3-8-1-13-5-18-6-9-12-17-1-32M1258 924a18 18 0 1 0 32 17 18 18 0 0 0-32-17Zm-11 16a28 28 0 0 1 19-35 28 28 0 0 1 33 41 28 28 0 0 1-38 11c-7-3-12-10-14-17M1299 972a5 5 0 1 1 1 10c-11 1-12 7-13 14-1 9-3 19-16 24-3 1-5 0-7-3-1-2 1-5 3-6 8-4 9-10 10-17 2-10 4-20 22-22M1138 821a5 5 0 0 1 1 10c-10 2-12 8-13 14-1 9-3 19-17 24a5 5 0 1 1-3-9c8-3 9-10 10-16 2-11 4-21 22-23M1231 844a5 5 0 1 1 8 7c-7 8-3 13 1 19 5 7 11 15 5 28a5 5 0 1 1-9-4c3-8-1-13-4-18-6-9-12-17-1-32M1111 1068c3 1 5 3 4 6 0 3-3 5-6 4-10-2-13 4-16 10-4 8-9 17-23 18a5 5 0 1 1-1-10c9-1 12-7 15-13 5-9 9-18 27-15M875 922a219 219 0 0 1 81-151c2-2 5-1 7 1l128 164a5 5 0 0 1-5 8l-207-16a5 5 0 0 1-4-6Zm18-40c-4 12-6 24-8 36l191 15-117-151a209 209 0 0 0-66 100"/><path fill="#B3B3B3" d="M907 924a186 186 0 0 1 69-128c2-1 5-1 7 1l108 139a5 5 0 0 1-5 8l-175-14a5 5 0 0 1-4-6Zm17-33-7 29 159 13-98-126a176 176 0 0 0-54 84"/><path fill="#B3B3B3" d="M976 871a15 15 0 1 0-27 13 15 15 0 1 0 27-13Zm-5-17a25 25 0 1 1-16 47 25 25 0 1 1 16-47M1038 914a5 5 0 0 1-10-3c2-8-2-11-7-14-7-4-14-8-14-21a5 5 0 0 1 10 0c0 7 5 10 9 13 8 5 16 9 12 25M950 2067a212 212 0 0 0 271 214 210 210 0 0 0 40-388 210 210 0 0 0-226 16l130 167a5 5 0 0 1-4 8Zm17 118c-20-38-30-81-27-124 1-2 3-4 6-4l204 16-126-162c-1-2-1-5 1-7a222 222 0 0 1 348 111 220 220 0 0 1-317 258c-39-21-69-52-89-88"/><path fill="#B3B3B3" d="M982 2070a178 178 0 0 0 229 178 177 177 0 0 0 33-326 177 177 0 0 0-189 12l110 142a5 5 0 0 1-4 8Zm13 98c-17-31-25-67-23-104 0-3 3-5 6-5l172 14-106-137c-2-2-1-5 1-7a188 188 0 0 1 294 95 187 187 0 0 1-269 219c-33-18-58-44-75-75"/><path fill="#B3B3B3" d="M1111 2126a18 18 0 0 0 7 25 18 18 0 0 0 26-22 18 18 0 0 0-22-12c-5 2-9 5-11 9Zm-11 17a28 28 0 1 1 54-16 28 28 0 0 1-54 16M1188 1964a18 18 0 0 0-24-9 18 18 0 0 0 2 34 18 18 0 0 0 22-25Zm-7-19a28 28 0 0 1 3 52 28 28 0 0 1-38-13 28 28 0 0 1 35-39M1180 2032a5 5 0 0 1 8-7c7 9 12 6 19 4 8-4 17-7 29 1a5 5 0 1 1-6 8c-7-5-14-2-19 0-10 4-20 8-31-6M1240 2099a5 5 0 1 1-3 10c-10-4-14 1-18 7-5 7-11 15-25 14a5 5 0 1 1 1-10c8 1 12-5 16-10 6-9 12-17 29-11M1014 2124a5 5 0 0 1 7-6c8 7 13 4 20 1 8-4 16-8 29-1a5 5 0 1 1-6 9c-7-5-13-2-19 1-9 5-18 10-31-4M1223 2164a18 18 0 1 0 32 18 18 18 0 0 0-32-18Zm-11 17a28 28 0 1 1 54-16 28 28 0 0 1-19 35 28 28 0 0 1-35-19M1157 2175a5 5 0 0 1 8 6c-6 9-3 14 1 20 6 7 11 15 6 28a5 5 0 0 1-9-4c3-8-1-13-5-18-6-9-12-17-1-32M1258 2024a18 18 0 1 0 32 17 18 18 0 0 0-32-17Zm-11 16a28 28 0 0 1 19-35 28 28 0 0 1 35 19 28 28 0 0 1-19 35 28 28 0 0 1-35-19M1299 2072a5 5 0 1 1 1 10c-11 1-12 7-13 14-1 9-3 19-16 24a5 5 0 0 1-4-9c8-4 9-10 10-17 2-10 4-20 22-22M1138 1921a5 5 0 1 1 1 10c-10 2-12 8-13 14-1 9-3 19-17 24a5 5 0 0 1-3-9c8-3 9-10 10-16 2-11 4-21 22-23M1231 1944a5 5 0 0 1 8 7c-7 8-3 13 1 19 5 7 11 15 5 28a5 5 0 0 1-9-4c3-8-1-13-4-18-6-9-12-17-1-32M1111 2168a5 5 0 0 1-2 10c-10-2-13 4-16 10-4 8-9 17-23 18a5 5 0 0 1-1-10c9-1 12-7 15-13 5-9 9-18 27-15M875 2022a219 219 0 0 1 81-151c2-2 5-1 7 1l128 164a5 5 0 0 1-5 8l-207-16a5 5 0 0 1-4-6Zm18-40c-4 12-6 24-8 36l191 15-117-151a209 209 0 0 0-66 100"/><path fill="#B3B3B3" d="M907 2024a186 186 0 0 1 69-128c2-1 5-1 7 1l108 139a5 5 0 0 1-5 8l-175-14a5 5 0 0 1-4-6Zm17-33-7 29 159 13-98-126a176 176 0 0 0-54 84"/><path fill="#B3B3B3" d="M976 1971a15 15 0 0 0-27 1 15 15 0 0 0 9 20 15 15 0 0 0 19-10c1-3 1-7-1-11Zm-5-17a25 25 0 0 1 3 46 25 25 0 0 1-35-31 25 25 0 0 1 32-15M1038 2014a5 5 0 0 1-10-3c2-8-2-11-7-14-7-4-14-8-14-21a5 5 0 1 1 10 0c0 7 5 10 9 13 8 5 16 9 12 25M1 81A211 211 0 0 0 233 0h13A220 220 0 0 1 1 92V81"/><path fill="#B3B3B3" d="M1 46A177 177 0 0 0 189 0h13A187 187 0 0 1 1 56V46M131 0h16c-5 2-10 2-16 0"/><path fill="#B3B3B3" d="M66 0v1c6 7 11 15 6 28a5 5 0 0 1-9-4c3-8-1-13-5-18l-4-7h12M1 1181a211 211 0 1 0 0-404v-11a222 222 0 0 1 165 18 220 220 0 0 1-42 406c-39 12-82 13-123 2Zm0-288 64 83a5 5 0 0 1-5 8l-59-5v-10l49 4-49-63v-17"/><path fill="#B3B3B3" d="M1 1146a177 177 0 1 0 0-336v-10a189 189 0 0 1 148 13 187 187 0 0 1-36 345c-36 11-75 11-112-2Zm0-253 64 83a5 5 0 0 1-5 8l-59-5v-10l49 4-49-63v-17"/><path fill="#B3B3B3" d="M11 1026a18 18 0 0 0 7 25 18 18 0 1 0-7-25Zm-10 20v-23l1-2a28 28 0 0 1 38-11 28 28 0 0 1-5 52 28 28 0 0 1-34-16M88 864a18 18 0 0 0-24-9 18 18 0 1 0 24 9Zm-7-19a28 28 0 0 1 3 52 28 28 0 0 1-39-35 28 28 0 0 1 36-17M80 932a5 5 0 1 1 8-7c7 9 12 6 19 4 8-4 17-7 29 1a5 5 0 0 1-6 8c-7-5-14-2-19 0-10 4-20 8-31-6M140 999a5 5 0 1 1-3 10c-10-4-14 1-18 7-5 7-11 15-25 14a5 5 0 0 1 1-10c8 1 12-5 16-10 6-9 12-17 29-11M123 1064a18 18 0 0 0 8 25 18 18 0 1 0-8-25Zm-11 17a28 28 0 0 1 41-33 28 28 0 0 1-6 52 28 28 0 0 1-35-19M57 1075a5 5 0 1 1 8 7c-6 8-3 13 1 19 6 7 11 15 6 28a5 5 0 0 1-9-4c3-8-1-13-5-18-6-9-12-17-1-32M158 924a18 18 0 1 0 32 17 18 18 0 0 0-32-17Zm-11 16a28 28 0 0 1 41-33 28 28 0 0 1 11 39 28 28 0 0 1-38 11c-7-3-12-10-14-17M199 972a5 5 0 1 1 1 10c-11 1-12 7-13 14-1 9-3 19-16 24a5 5 0 0 1-4-9c8-4 9-10 10-17 2-10 4-20 22-22M38 821a5 5 0 0 1 1 10c-10 2-12 8-13 14-1 9-3 19-17 24a5 5 0 1 1-3-9c8-3 9-10 10-16 2-11 4-21 22-23M131 844a5 5 0 1 1 8 7c-7 8-3 13 1 19 5 7 11 15 5 28-1 3-4 4-6 3-3-1-4-4-3-7 3-8-1-13-4-18-6-9-12-17-1-32M11 1068a5 5 0 0 1-2 10l-8 1v-11h10M1 2281a211 211 0 1 0 0-404v-11a222 222 0 0 1 165 18 220 220 0 0 1-42 406c-39 12-82 13-123 2Zm0-288 64 83a5 5 0 0 1-5 8l-59-5v-10l49 4-49-63v-17"/><path fill="#B3B3B3" d="M1 2246a177 177 0 0 0 229-219A177 177 0 0 0 1 1910v-10a189 189 0 0 1 238 124A187 187 0 0 1 1 2256Zm0-253 64 83a5 5 0 0 1-5 8l-59-5v-10l49 4-49-63v-17"/><path fill="#B3B3B3" d="M11 2126a18 18 0 0 0 7 25 18 18 0 0 0 26-22 18 18 0 0 0-33-3Zm-10 20v-23a28 28 0 0 1 18-15 28 28 0 0 1 33 40 28 28 0 0 1-51-2M88 1964a18 18 0 0 0-24-9 18 18 0 1 0 24 9Zm-7-19a28 28 0 0 1 3 52 28 28 0 0 1-39-35 28 28 0 0 1 36-17M80 2032a5 5 0 1 1 8-7c7 9 12 6 19 4 8-4 17-7 29 1a5 5 0 1 1-6 8c-7-5-14-2-19 0-10 4-20 8-31-6M140 2099a5 5 0 1 1-3 10c-10-4-14 1-18 7-5 7-11 15-25 14a5 5 0 1 1 1-10c8 1 12-5 16-10 6-9 12-17 29-11M123 2164a18 18 0 0 0 21 26 18 18 0 0 0 4-33 18 18 0 0 0-25 7Zm-11 17a28 28 0 0 1 41-33 28 28 0 0 1-6 52 28 28 0 0 1-35-19M57 2175a5 5 0 0 1 8 6c-6 9-3 14 1 20 6 7 11 15 6 28a5 5 0 0 1-9-4c3-8-1-13-5-18-6-9-12-17-1-32M158 2024a18 18 0 0 0 21 26 18 18 0 0 0 4-34 18 18 0 0 0-25 8Zm-11 16a28 28 0 0 1 41-33 28 28 0 0 1 11 39 28 28 0 0 1-52-6M199 2072a5 5 0 1 1 1 10c-11 1-12 7-13 14-1 9-3 19-16 24a5 5 0 1 1-4-9c8-4 9-10 10-17 2-10 4-20 22-22M38 1921a5 5 0 1 1 1 10c-10 2-12 8-13 14-1 9-3 19-17 24a5 5 0 0 1-3-9c8-3 9-10 10-16 2-11 4-21 22-23M131 1944a5 5 0 0 1 8 7c-7 8-3 13 1 19 5 7 11 15 5 28a5 5 0 0 1-9-4c3-8-1-13-4-18-6-9-12-17-1-32M11 2168a5 5 0 0 1-2 10l-8 1v-11h10M3691 0a210 210 0 0 0 149 58l-2-58h10l2 63c0 3-2 5-5 5a222 222 0 0 1-168-68h14"/><path fill="#B3B3B3" d="m3745 0 1 1c28 17 60 25 93 25l-1-26h10l1 31c0 3-2 5-5 5a188 188 0 0 1-117-36h18M4001 814a211 211 0 1 0-161 344l-8-211a5 5 0 0 1 8-4l161 136v12l-2-1-157-132 8 205c0 3-2 5-5 5a222 222 0 0 1-217-293 220 220 0 0 1 373-76v15"/><path fill="#B3B3B3" d="M3977 1059c10-13 18-26 24-41v23l-19 28h-1c-1 2-5 2-7 1l-132-112 7 173c0 3-2 5-5 5a188 188 0 0 1-184-248 187 187 0 0 1 341-32v23l-4-8a177 177 0 0 0-328 20 177 177 0 0 0 170 235l-7-179a5 5 0 0 1 8-4l137 116"/><path fill="#B3B3B3" d="M3905 938a18 18 0 0 0 8-25 18 18 0 1 0-8 25Zm19-7a28 28 0 0 1-52 3 28 28 0 0 1 34-39 28 28 0 0 1 18 36M3747 1025a18 18 0 1 0 36 6 18 18 0 0 0-36-6Zm-5 19a28 28 0 0 1 29-44 28 28 0 0 1 11 51 28 28 0 0 1-40-7M3794 974a5 5 0 1 1-10 1c-1-11-7-12-14-14-8-2-18-4-22-18a5 5 0 0 1 9-3c3 8 9 10 16 11 10 3 20 5 21 23M3784 884a5 5 0 1 1 8-5c7 8 13 6 19 4 9-3 18-6 29 3a5 5 0 1 1-6 8c-7-6-14-4-20-2-10 4-19 7-30-8M3983 995a5 5 0 0 1-10 2c-2-11-8-12-15-13-9-1-18-3-24-16a5 5 0 0 1 9-4c4 8 10 9 17 10 10 2 20 3 23 21M3836 841a18 18 0 0 0 8-24 18 18 0 1 0-8 24Zm19-7a28 28 0 0 1-53 3 28 28 0 0 1 35-39 28 28 0 0 1 18 36M3896 871a5 5 0 1 1-3-10c10-3 10-9 10-16 0-9 0-19 12-27a5 5 0 1 1 6 9c-8 5-8 11-8 18 0 11 1 21-17 26M3726 935a18 18 0 0 0 8-24 18 18 0 0 0-24-8 18 18 0 0 0-9 24 18 18 0 0 0 25 8Zm19-7a28 28 0 0 1-37 18 28 28 0 0 1-17-36 28 28 0 0 1 36-18 28 28 0 0 1 18 36M3721 873a5 5 0 1 1 4-9c10 5 14 0 19-5 7-6 13-13 27-10a5 5 0 1 1-2 10c-8-2-13 3-18 8-7 7-14 14-30 6M3702 1016a5 5 0 0 1-3-10c10-3 10-9 10-16 0-9 0-19 12-27a5 5 0 1 1 6 9c-8 5-8 11-8 18 0 10 0 20-17 26M3929 903a5 5 0 0 1 8-7c7 8 13 5 19 2 8-4 16-9 29-1a5 5 0 1 1-5 8c-8-4-14-1-20 2-9 5-18 10-31-4M4001 1914a211 211 0 1 0-161 344l-8-211a5 5 0 0 1 8-4l161 136v12l-2-1-157-132 8 205c0 3-2 5-5 5a222 222 0 0 1-217-293 220 220 0 0 1 373-76v15"/><path fill="#B3B3B3" d="M3977 2159c10-13 18-26 24-41v23l-19 28h-1c-1 2-5 2-7 1l-132-112 7 173c0 3-2 5-5 5a188 188 0 0 1-184-248 187 187 0 0 1 341-32v23a178 178 0 1 0-162 247l-7-179a5 5 0 0 1 8-4l137 116"/><path fill="#B3B3B3" d="M3905 2038a18 18 0 0 0-2-34 18 18 0 1 0-12 35c5 1 10 1 14-1Zm19-7a28 28 0 0 1-52 3 28 28 0 0 1 34-39 28 28 0 0 1 18 36M3747 2125a18 18 0 1 0 36 6 18 18 0 1 0-36-6Zm-5 19a28 28 0 0 1 7-39 28 28 0 0 1 40 7 28 28 0 0 1-29 44c-7-2-14-6-18-12M3794 2074a5 5 0 1 1-10 1c-1-11-7-12-14-14-8-2-18-4-22-18a5 5 0 0 1 9-3c3 8 9 10 16 11 10 3 20 5 21 23M3784 1984a5 5 0 1 1 8-5c7 8 13 6 19 4 9-3 18-6 29 3a5 5 0 1 1-6 8c-7-6-14-4-20-2-10 4-19 7-30-8M3983 2095a5 5 0 0 1-10 2c-2-11-8-12-15-13-9-1-18-3-24-16a5 5 0 0 1 9-4c4 8 10 9 17 10 10 2 20 3 23 21M3836 1941a18 18 0 0 0 8-24 18 18 0 1 0-8 24Zm19-7a28 28 0 0 1-53 3 28 28 0 0 1 35-39 28 28 0 0 1 18 36M3896 1971c-2 1-5-1-6-4-1-2 1-5 3-6 10-3 10-9 10-16 0-9 0-19 12-27a5 5 0 1 1 6 9c-8 5-8 11-8 18 0 11 1 21-17 26M3726 2035a18 18 0 0 0 8-24 18 18 0 0 0-24-8 18 18 0 0 0 2 33c4 2 9 2 14-1Zm19-7a28 28 0 0 1-53 3 28 28 0 0 1 13-38 28 28 0 0 1 40 35M3721 1973a5 5 0 1 1 4-9c10 5 14 0 19-5 7-6 13-13 27-10a5 5 0 1 1-2 10c-8-2-13 3-18 8-7 7-14 14-30 6M3702 2116a5 5 0 0 1-3-10c10-3 10-9 10-16 0-9 0-19 12-27a5 5 0 1 1 6 9c-8 5-8 11-8 18 0 10 0 20-17 26M3929 2003a5 5 0 0 1 8-7c7 8 13 5 19 2 8-4 16-9 29-1a5 5 0 1 1-5 8c-8-4-14-1-20 2-9 5-18 10-31-4M2591 0a210 210 0 0 0 149 58l-2-58h10l2 63c0 3-2 5-5 5a222 222 0 0 1-168-68h14"/><path fill="#B3B3B3" d="m2645 0 1 1c28 17 60 25 93 25l-1-26h10l1 31c0 3-2 5-5 5a188 188 0 0 1-117-36h18M2901 1079a212 212 0 0 0-96-331 210 210 0 0 0-258 292 210 210 0 0 0 193 118l-8-211a5 5 0 0 1 8-4Zm55-105c-5 42-22 83-50 116-2 2-5 2-7 0l-157-132 8 205c0 3-2 5-5 5a222 222 0 0 1-217-293 220 220 0 0 1 407-25c20 40 26 83 21 124"/><path fill="#B3B3B3" d="M2877 1059a179 179 0 0 0 20-188 177 177 0 0 0-328 20 177 177 0 0 0 170 235l-7-179a5 5 0 0 1 8-4Zm47-88c-4 36-19 70-42 98h-1c-1 2-5 2-7 1l-132-112 7 173c0 3-2 5-5 5a188 188 0 0 1-184-248 187 187 0 0 1 346-22c17 34 22 70 18 105"/><path fill="#B3B3B3" d="M2805 938a18 18 0 0 0 8-25 18 18 0 0 0-24-8 18 18 0 0 0-8 24 18 18 0 0 0 24 9Zm19-7a28 28 0 0 1-52 3 28 28 0 0 1 34-39 28 28 0 0 1 18 36M2647 1025a18 18 0 1 0 36 6 18 18 0 0 0-36-6Zm-5 19a28 28 0 0 1 29-44 28 28 0 0 1 11 51 28 28 0 0 1-40-7M2694 974a5 5 0 1 1-10 1c-1-11-7-12-14-14-8-2-18-4-22-18a5 5 0 0 1 9-3c3 8 9 10 16 11 10 3 20 5 21 23M2684 884a5 5 0 1 1 8-5c7 8 13 6 19 4 9-3 18-6 29 3a5 5 0 1 1-6 8c-7-6-14-4-20-2-10 4-19 7-30-8M2883 995a5 5 0 1 1-10 2c-2-11-8-12-15-13-9-1-18-3-24-16a5 5 0 0 1 9-4c4 8 10 9 17 10 10 2 20 3 23 21M2736 841a18 18 0 0 0-2-33 18 18 0 1 0 2 33Zm19-7a28 28 0 0 1-53 3 28 28 0 0 1 35-39 28 28 0 0 1 18 36M2796 871a5 5 0 1 1-3-10c10-3 10-9 10-16 0-9 0-19 12-27a5 5 0 1 1 6 9c-8 5-8 11-8 18 0 11 1 21-17 26M2626 935a18 18 0 0 0 8-24 18 18 0 0 0-24-8 18 18 0 0 0-9 24 18 18 0 0 0 25 8Zm19-7a28 28 0 0 1-37 18 28 28 0 0 1-17-36 28 28 0 0 1 36-18 28 28 0 0 1 18 36M2621 873a5 5 0 1 1 4-9c10 5 14 0 19-5 7-6 13-13 27-10a5 5 0 1 1-2 10c-8-2-13 3-18 8-7 7-14 14-30 6M2602 1016a5 5 0 0 1-3-10c10-3 10-9 10-16 0-9 0-19 12-27a5 5 0 1 1 6 9c-8 5-8 11-8 18 0 10 0 20-17 26M2829 903a5 5 0 0 1 8-7c7 8 13 5 19 2 8-4 16-9 29-1a5 5 0 1 1-5 8c-8-4-14-1-20 2-9 5-18 10-31-4M2901 2179a212 212 0 0 0-96-331 210 210 0 0 0-258 292 210 210 0 0 0 193 118l-8-211a5 5 0 0 1 8-4Zm55-105c-5 42-22 83-50 116-2 2-5 2-7 0l-157-132 8 205c0 3-2 5-5 5a222 222 0 0 1-217-293 220 220 0 0 1 407-25c20 40 26 83 21 124"/><path fill="#B3B3B3" d="M2877 2159a179 179 0 0 0 20-188 177 177 0 0 0-328 20 177 177 0 0 0 170 235l-7-179a5 5 0 0 1 8-4Zm47-88c-4 36-19 70-42 98h-1c-1 2-5 2-7 1l-132-112 7 173c0 3-2 5-5 5a188 188 0 0 1-184-248 187 187 0 0 1 346-22c17 34 22 70 18 105"/><path fill="#B3B3B3" d="M2805 2038a18 18 0 0 0-2-34 18 18 0 0 0-23 12 18 18 0 0 0 11 23c5 1 10 1 14-1Zm19-7a28 28 0 0 1-52 3 28 28 0 0 1 34-39 28 28 0 0 1 18 36M2647 2125a18 18 0 1 0 36 6 18 18 0 1 0-36-6Zm-5 19a28 28 0 0 1 7-39 28 28 0 0 1 40 7 28 28 0 0 1-29 44c-7-2-14-6-18-12M2694 2074a5 5 0 1 1-10 1c-1-11-7-12-14-14-8-2-18-4-22-18a5 5 0 0 1 9-3c3 8 9 10 16 11 10 3 20 5 21 23M2684 1984a5 5 0 1 1 8-5c7 8 13 6 19 4 9-3 18-6 29 3a5 5 0 1 1-6 8c-7-6-14-4-20-2-10 4-19 7-30-8M2883 2095a5 5 0 1 1-10 2c-2-11-8-12-15-13-9-1-18-3-24-16a5 5 0 0 1 9-4c4 8 10 9 17 10 10 2 20 3 23 21M2736 1941a18 18 0 0 0-2-33 18 18 0 0 0-23 11 18 18 0 0 0 25 22Zm19-7a28 28 0 0 1-53 3 28 28 0 0 1 35-39 28 28 0 0 1 18 36M2796 1971c-2 1-5-1-6-4-1-2 1-5 3-6 10-3 10-9 10-16 0-9 0-19 12-27a5 5 0 1 1 6 9c-8 5-8 11-8 18 0 11 1 21-17 26M2626 2035a18 18 0 0 0 8-24 18 18 0 0 0-24-8 18 18 0 0 0 2 33c4 2 9 2 14-1Zm19-7a28 28 0 0 1-53 3 28 28 0 0 1 13-38 28 28 0 0 1 40 35M2621 1973a5 5 0 1 1 4-9c10 5 14 0 19-5 7-6 13-13 27-10a5 5 0 1 1-2 10c-8-2-13 3-18 8-7 7-14 14-30 6M2602 2116a5 5 0 0 1-3-10c10-3 10-9 10-16 0-9 0-19 12-27a5 5 0 1 1 6 9c-8 5-8 11-8 18 0 10 0 20-17 26M2829 2003a5 5 0 0 1 8-7c7 8 13 5 19 2 8-4 16-9 29-1a5 5 0 1 1-5 8c-8-4-14-1-20 2-9 5-18 10-31-4M1491 0a210 210 0 0 0 149 58l-2-58h10l2 63c0 3-2 5-5 5a222 222 0 0 1-168-68h14"/><path fill="#B3B3B3" d="m1545 0 1 1c28 17 60 25 93 25l-1-26h10l1 31c0 3-2 5-5 5a188 188 0 0 1-117-36h18M1801 1079a212 212 0 0 0-96-331 210 210 0 0 0-258 292 210 210 0 0 0 193 118l-8-211a5 5 0 0 1 8-4Zm55-105c-5 42-22 83-50 116-2 2-5 2-7 0l-157-132 8 205c0 3-2 5-5 5a222 222 0 0 1-217-293 220 220 0 0 1 407-25c20 40 26 83 21 124"/><path fill="#B3B3B3" d="M1777 1059a179 179 0 0 0 20-188 177 177 0 0 0-328 20 177 177 0 0 0 170 235l-7-179a5 5 0 0 1 8-4Zm47-88c-4 36-19 70-42 98h-1c-1 2-5 2-7 1l-132-112 7 173c0 3-2 5-5 5a188 188 0 0 1-184-248 187 187 0 0 1 346-22c17 34 22 70 18 105"/><path fill="#B3B3B3" d="M1705 938a18 18 0 0 0 8-25 18 18 0 0 0-24-8 18 18 0 0 0-8 24 18 18 0 0 0 24 9Zm19-7a28 28 0 0 1-36 17 28 28 0 0 1-3-52 28 28 0 0 1 39 35M1547 1025a18 18 0 1 0 36 6 18 18 0 0 0-36-6Zm-5 19a28 28 0 0 1 29-44 28 28 0 0 1 11 51 28 28 0 0 1-40-7M1594 974a5 5 0 1 1-10 1c-1-11-7-12-14-14-8-2-18-4-22-18a5 5 0 0 1 9-3c3 8 9 10 16 11 10 3 20 5 21 23M1584 884a5 5 0 1 1 8-5c7 8 13 6 19 4 9-3 18-6 29 3a5 5 0 1 1-6 8c-7-6-14-4-20-2-10 4-19 7-30-8M1783 995a5 5 0 1 1-10 2c-2-11-8-12-15-13-9-1-18-3-24-16a5 5 0 0 1 9-4c4 8 10 9 17 10 10 2 20 3 23 21M1636 841a18 18 0 0 0-2-33 18 18 0 1 0 2 33Zm19-7a28 28 0 0 1-53 3 28 28 0 0 1 35-39 28 28 0 0 1 18 36M1696 871a5 5 0 1 1-3-10c10-3 10-9 10-16 0-9 0-19 12-27a5 5 0 1 1 6 9c-8 5-8 11-8 18 0 11 1 21-17 26M1526 935a18 18 0 0 0 8-24 18 18 0 0 0-24-8 18 18 0 0 0-9 24 18 18 0 0 0 25 8Zm19-7a28 28 0 0 1-37 18 28 28 0 0 1-17-36 28 28 0 0 1 52-3c4 7 4 14 2 21M1521 873a5 5 0 1 1 4-9c10 5 14 0 19-5 7-6 13-13 27-10a5 5 0 1 1-2 10c-8-2-13 3-18 8-7 7-14 14-30 6M1502 1016a5 5 0 0 1-3-10c10-3 10-9 10-16 0-9 0-19 12-27a5 5 0 1 1 6 9c-8 5-8 11-8 18 0 10 0 20-17 26M1729 903a5 5 0 0 1 8-7c7 8 13 5 19 2 8-4 16-9 29-1a5 5 0 1 1-5 8c-8-4-14-1-20 2-9 5-18 10-31-4M1801 2179a212 212 0 0 0-96-331 210 210 0 0 0-258 292 210 210 0 0 0 193 118l-8-211a5 5 0 0 1 8-4Zm55-105c-5 42-22 83-50 116-2 2-5 2-7 0l-157-132 8 205c0 3-2 5-5 5a222 222 0 0 1-217-293 220 220 0 0 1 407-25c20 40 26 83 21 124"/><path fill="#B3B3B3" d="M1777 2159a179 179 0 0 0 20-188 177 177 0 0 0-328 20 177 177 0 0 0 170 235l-7-179a5 5 0 0 1 8-4Zm47-88c-4 36-19 70-42 98h-1c-1 2-5 2-7 1l-132-112 7 173c0 3-2 5-5 5a188 188 0 0 1-184-248 187 187 0 0 1 346-22c17 34 22 70 18 105"/><path fill="#B3B3B3" d="M1705 2038a18 18 0 0 0-2-34 18 18 0 0 0-23 12 18 18 0 0 0 11 23c5 1 10 1 14-1Zm19-7a28 28 0 0 1-36 17 28 28 0 0 1-3-52 28 28 0 0 1 39 35M1547 2125a18 18 0 1 0 36 6 18 18 0 1 0-36-6Zm-5 19a28 28 0 0 1 7-39 28 28 0 0 1 40 7 28 28 0 0 1-29 44c-7-2-14-6-18-12M1594 2074a5 5 0 1 1-10 1c-1-11-7-12-14-14-8-2-18-4-22-18a5 5 0 0 1 9-3c3 8 9 10 16 11 10 3 20 5 21 23M1584 1984a5 5 0 1 1 8-5c7 8 13 6 19 4 9-3 18-6 29 3a5 5 0 1 1-6 8c-7-6-14-4-20-2-10 4-19 7-30-8M1783 2095a5 5 0 1 1-10 2c-2-11-8-12-15-13-9-1-18-3-24-16a5 5 0 0 1 9-4c4 8 10 9 17 10 10 2 20 3 23 21M1636 1941a18 18 0 0 0-2-33 18 18 0 0 0-23 11 18 18 0 0 0 25 22Zm19-7a28 28 0 0 1-53 3 28 28 0 0 1 35-39 28 28 0 0 1 18 36M1696 1971c-2 1-5-1-6-4-1-2 1-5 3-6 10-3 10-9 10-16 0-9 0-19 12-27a5 5 0 1 1 6 9c-8 5-8 11-8 18 0 11 1 21-17 26M1526 2035a18 18 0 0 0 8-24 18 18 0 0 0-24-8 18 18 0 0 0 2 33c4 2 9 2 14-1Zm19-7a28 28 0 0 1-53 3 28 28 0 0 1 13-38 28 28 0 0 1 40 35M1521 1973a5 5 0 1 1 4-9c10 5 14 0 19-5 7-6 13-13 27-10a5 5 0 1 1-2 10c-8-2-13 3-18 8-7 7-14 14-30 6M1502 2116a5 5 0 0 1-3-10c10-3 10-9 10-16 0-9 0-19 12-27a5 5 0 1 1 6 9c-8 5-8 11-8 18 0 10 0 20-17 26M1729 2003a5 5 0 0 1 8-7c7 8 13 5 19 2 8-4 16-9 29-1a5 5 0 1 1-5 8c-8-4-14-1-20 2-9 5-18 10-31-4M391 0a210 210 0 0 0 149 58l-2-58h10l2 63c0 3-2 5-5 5A222 222 0 0 1 377 0h14"/><path fill="#B3B3B3" d="m445 0 1 1c28 17 60 25 93 25l-1-26h10l1 31c0 3-2 5-5 5A188 188 0 0 1 427 0h18M701 1079a212 212 0 0 0-96-331 210 210 0 0 0-258 292 210 210 0 0 0 193 118l-8-211a5 5 0 0 1 8-4Zm55-105c-5 42-22 83-50 116-2 2-5 2-7 0L542 958l8 205c0 3-2 5-5 5a222 222 0 0 1-217-293 220 220 0 0 1 407-25c20 40 26 83 21 124"/><path fill="#B3B3B3" d="M677 1059a179 179 0 0 0 20-188 177 177 0 0 0-328 20 177 177 0 0 0 170 235l-7-179a5 5 0 0 1 8-4Zm47-88a188 188 0 0 1-43 98c-1 2-5 2-7 1L542 958l7 173c0 3-2 5-5 5a188 188 0 0 1-184-248 187 187 0 0 1 346-22c17 34 22 70 18 105"/><path fill="#B3B3B3" d="M605 938a18 18 0 0 0 8-25 18 18 0 1 0-32 16 18 18 0 0 0 24 9Zm19-7a28 28 0 0 1-52 3 28 28 0 0 1 34-39 28 28 0 0 1 18 36M447 1025a18 18 0 1 0 36 6 18 18 0 0 0-36-6Zm-5 19a28 28 0 1 1 47-32 28 28 0 1 1-47 32M494 974a5 5 0 1 1-10 1c-1-11-7-12-14-14-8-2-18-4-22-18a5 5 0 1 1 9-3c3 8 9 10 16 11 10 3 20 5 21 23M484 884a5 5 0 0 1 8-5c7 8 13 6 19 4 9-3 18-6 29 3a5 5 0 1 1-6 8c-7-6-14-4-20-2-10 4-19 7-30-8M683 995a5 5 0 1 1-10 2c-2-11-8-12-15-13-9-1-18-3-24-16a5 5 0 1 1 9-4c4 8 10 9 17 10 10 2 20 3 23 21M536 841a18 18 0 0 0 8-24 18 18 0 0 0-33 2 18 18 0 0 0 25 22Zm19-7a28 28 0 0 1-36 18 28 28 0 0 1-3-53 28 28 0 0 1 37 13c4 8 4 15 2 22M596 871a5 5 0 1 1-3-10c10-3 10-9 10-16 0-9 0-19 12-27a5 5 0 1 1 6 9c-8 5-8 11-8 18 0 11 1 21-17 26M426 935a18 18 0 0 0 8-24 18 18 0 0 0-24-8 18 18 0 0 0-9 24 18 18 0 0 0 25 8Zm19-7a28 28 0 0 1-53 3 28 28 0 0 1 13-38 28 28 0 0 1 40 35M421 873a5 5 0 0 1 4-9c10 5 14 0 19-5 7-6 13-13 27-10a5 5 0 1 1-2 10c-8-2-13 3-18 8-7 7-14 14-30 6M402 1016a5 5 0 1 1-3-10c10-3 10-9 10-16 0-9 0-19 12-27a5 5 0 1 1 6 9c-8 5-8 11-8 18 0 10 0 20-17 26M629 903a5 5 0 0 1 8-7c7 8 13 5 19 2 8-4 16-9 29-1a5 5 0 1 1-5 8c-8-4-14-1-20 2-9 5-18 10-31-4M701 2179a212 212 0 0 0-96-331 210 210 0 0 0-258 292 210 210 0 0 0 193 118l-8-211a5 5 0 0 1 8-4Zm55-105c-5 42-22 83-50 116-2 2-5 2-7 0l-157-132 8 205c0 3-2 5-5 5a222 222 0 0 1-217-293 220 220 0 0 1 407-25c20 40 26 83 21 124"/><path fill="#B3B3B3" d="M677 2159a179 179 0 0 0-82-278 177 177 0 0 0-217 246 177 177 0 0 0 161 99l-7-179a5 5 0 0 1 8-4Zm47-88a188 188 0 0 1-43 98c-1 2-5 2-7 1l-132-112 7 173c0 3-2 5-5 5a188 188 0 0 1-184-248 187 187 0 0 1 346-22c17 34 22 70 18 105"/><path fill="#B3B3B3" d="M605 2038a18 18 0 0 0-2-34 18 18 0 1 0-12 35c5 1 10 1 14-1Zm19-7a28 28 0 0 1-52 3 28 28 0 0 1 34-39 28 28 0 0 1 18 36M447 2125a18 18 0 1 0 36 6 18 18 0 1 0-36-6Zm-5 19a28 28 0 0 1 29-44 28 28 0 0 1 11 51 28 28 0 0 1-40-7M494 2074a5 5 0 0 1-10 1c-1-11-7-12-14-14-8-2-18-4-22-18a5 5 0 1 1 9-3c3 8 9 10 16 11 10 3 20 5 21 23M484 1984a5 5 0 1 1 8-5c7 8 13 6 19 4 9-3 18-6 29 3a5 5 0 0 1-6 8c-7-6-14-4-20-2-10 4-19 7-30-8M683 2095a5 5 0 1 1-10 2c-2-11-8-12-15-13-9-1-18-3-24-16a5 5 0 1 1 9-4c4 8 10 9 17 10 10 2 20 3 23 21M536 1941a18 18 0 0 0-2-33 18 18 0 0 0-22 25 18 18 0 0 0 24 8Zm19-7a28 28 0 0 1-53 3 28 28 0 0 1 35-39 28 28 0 0 1 18 36M596 1971a5 5 0 0 1-3-10c10-3 10-9 10-16 0-9 0-19 12-27a5 5 0 1 1 6 9c-8 5-8 11-8 18 0 11 1 21-17 26M426 2035a18 18 0 0 0 8-24 18 18 0 0 0-24-8 18 18 0 0 0 2 33c4 2 9 2 14-1Zm19-7a28 28 0 0 1-53 3 28 28 0 0 1 13-38 28 28 0 0 1 40 35M421 1973a5 5 0 1 1 4-9c10 5 14 0 19-5 7-6 13-13 27-10a5 5 0 1 1-2 10c-8-2-13 3-18 8-7 7-14 14-30 6M402 2116a5 5 0 1 1-3-10c10-3 10-9 10-16 0-9 0-19 12-27a5 5 0 1 1 6 9c-8 5-8 11-8 18 0 10 0 20-17 26M629 2003a5 5 0 0 1 8-7c7 8 13 5 19 2 8-4 16-9 29-1a5 5 0 1 1-5 8c-8-4-14-1-20 2-9 5-18 10-31-4M4001 89l-39-14a5 5 0 0 1 0-10l39-20v11l-24 13 24 9v11M4001 1189l-39-14a5 5 0 0 1 0-10l39-20v11l-24 13 24 9v11M4001 2289l-39-14a5 5 0 0 1 0-10l39-20v11l-24 13 24 9v11M3065 0a221 221 0 0 1-1 143c-1 2-4 4-6 3l-196-71a5 5 0 0 1 0-10l124-65h22l-131 69 179 65a209 209 0 0 0-2-134h11M3053 1072a219 219 0 0 1 11 171c-1 2-4 4-6 3l-196-71a5 5 0 0 1 0-10l184-96c2-1 5 0 7 2v1Zm6 43-13-35-169 89 179 65a209 209 0 0 0 3-119M3053 2172a219 219 0 0 1 11 171c-1 2-4 4-6 3l-196-71a5 5 0 0 1 0-10l184-96a5 5 0 0 1 7 3Zm6 43-13-35-169 89 179 65a209 209 0 0 0 3-119M1965 0a221 221 0 0 1-1 143c-1 2-4 4-6 3l-196-71a5 5 0 0 1 0-10l124-65h22l-131 69 179 65a209 209 0 0 0-2-134h11M1953 1072a219 219 0 0 1 11 171c-1 2-4 4-6 3l-196-71a5 5 0 0 1 0-10l184-96c2-1 5 0 7 2v1Zm6 43-13-35-169 89 179 65a209 209 0 0 0 3-119M1953 2172a219 219 0 0 1 11 171c-1 2-4 4-6 3l-196-71a5 5 0 0 1 0-10l184-96a5 5 0 0 1 7 3Zm6 43-13-35-169 89 179 65a209 209 0 0 0 3-119M865 0a221 221 0 0 1-1 143c-1 2-4 4-6 3L662 75a5 5 0 0 1 0-10L786 0h22L677 69l179 65a209 209 0 0 0-2-134h11M853 1072a219 219 0 0 1 11 171c-1 2-4 4-6 3l-196-71a5 5 0 0 1 0-10l184-96a5 5 0 0 1 7 3Zm6 43-13-35-169 89 179 65a209 209 0 0 0 3-119M853 2172a219 219 0 0 1 11 171c-1 2-4 4-6 3l-196-71a5 5 0 0 1 0-10l184-96a5 5 0 0 1 7 3Zm6 43-13-35-169 89 179 65a209 209 0 0 0 3-119"/><path fill="#B3B3B3" d="m4001 89-39-14a5 5 0 0 1 0-10l39-20v11l-24 13 24 9v11M4001 1189l-39-14a5 5 0 0 1 0-10l39-20v11l-24 13 24 9v11M4001 2289l-39-14a5 5 0 0 1 0-10l39-20v11l-24 13 24 9v11M3030 0a189 189 0 0 1 4 132c-1 2-4 4-7 3l-165-60a5 5 0 0 1 0-10l124-65h22l-131 69 149 54a177 177 0 0 0-6-123h10M3024 1087a187 187 0 0 1 10 145c-1 2-4 4-7 3l-165-60a5 5 0 0 1 0-10l155-81a5 5 0 0 1 7 3Zm4 37c-3-10-6-20-11-29l-140 74 149 54a177 177 0 0 0 2-99M3024 2187a187 187 0 0 1 10 145c-1 2-4 4-7 3l-165-60a5 5 0 0 1 0-10l155-81a5 5 0 0 1 7 3Zm4 37c-3-10-6-20-11-29l-140 74 149 54a177 177 0 0 0 2-99M1930 0a189 189 0 0 1 4 132c-1 2-4 4-7 3l-165-60a5 5 0 0 1 0-10l124-65h22l-131 69 149 54a177 177 0 0 0-6-123h10M1924 1087a187 187 0 0 1 10 145c-1 2-4 4-7 3l-165-60a5 5 0 0 1 0-10l155-81a5 5 0 0 1 7 3Zm4 37c-3-10-6-20-11-29l-140 74 149 54a177 177 0 0 0 2-99M1924 2187a187 187 0 0 1 10 145c-1 2-4 4-7 3l-165-60a5 5 0 0 1 0-10l155-81a5 5 0 0 1 7 3Zm4 37c-3-10-6-20-11-29l-140 74 149 54a177 177 0 0 0 2-99M830 0a186 186 0 0 1 4 132c-1 2-4 4-7 3L662 75a5 5 0 0 1 0-10L786 0h22L677 69l149 54a176 176 0 0 0-6-123h10M824 1087a186 186 0 0 1 10 145c-1 2-4 4-7 3l-165-60a5 5 0 0 1 0-10l155-81c3-1 6 0 7 2v1Zm4 37c-3-10-6-20-11-29l-140 74 149 54a176 176 0 0 0 2-99M824 2187a186 186 0 0 1 10 145c-1 2-4 4-7 3l-165-60a5 5 0 0 1 0-10l155-81a5 5 0 0 1 7 3Zm4 37c-3-10-6-20-11-29l-140 74 149 54a176 176 0 0 0 2-99"/><path fill="#B3B3B3" d="M2994 69a15 15 0 0 0 20-5 15 15 0 1 0-25-16 15 15 0 0 0 5 21Zm13 11a25 25 0 0 1-30-18 25 25 0 1 1 30 18M2994 1169a15 15 0 0 0 20-5 15 15 0 1 0-25-16 15 15 0 0 0 5 21Zm13 11a25 25 0 0 1-30-18 25 25 0 1 1 30 18M2994 2269a15 15 0 0 0 22-16 15 15 0 0 0-27-5 15 15 0 0 0 5 21Zm13 11a25 25 0 0 1-27-37 25 25 0 0 1 46 7 25 25 0 0 1-19 30M1894 69a15 15 0 0 0 20-5 15 15 0 1 0-25-16 15 15 0 0 0 5 21Zm13 11a25 25 0 0 1-30-18 25 25 0 1 1 30 18M1894 1169a15 15 0 0 0 20-5 15 15 0 1 0-25-16 15 15 0 0 0 5 21Zm13 11a25 25 0 0 1-30-18 25 25 0 1 1 30 18M1894 2269a15 15 0 0 0 22-16 15 15 0 0 0-27-5 15 15 0 0 0 5 21Zm13 11a25 25 0 0 1-27-37 25 25 0 0 1 46 7 25 25 0 0 1-19 30M794 69a15 15 0 0 0 20-5 15 15 0 1 0-20 5Zm13 11a25 25 0 0 1-30-18 25 25 0 1 1 49-12 25 25 0 0 1-19 30M794 1169a15 15 0 0 0 20-5 15 15 0 1 0-20 5Zm13 11a25 25 0 0 1-30-18 25 25 0 1 1 49-12 25 25 0 0 1-19 30M794 2269a15 15 0 0 0 22-16 15 15 0 0 0-18-12 15 15 0 0 0-11 18c1 4 3 7 7 10Zm13 11a25 25 0 0 1-27-37 25 25 0 0 1 46 7 25 25 0 0 1-19 30M2919 65a5 5 0 1 1 9-3c3 8 8 8 14 8 8 0 16 0 23 11a5 5 0 0 1-8 5c-4-6-10-6-15-6-10 0-18 0-23-15M2919 1165a5 5 0 1 1 9-3c3 8 8 8 14 8 8 0 16 0 23 11a5 5 0 0 1-8 5c-4-6-10-6-15-6-10 0-18 0-23-15M2919 2265a5 5 0 1 1 9-3c3 8 8 8 14 8 8 0 16 0 23 11a5 5 0 0 1-8 5c-4-6-10-6-15-6-10 0-18 0-23-15M1819 65a5 5 0 1 1 9-3c3 8 8 8 14 8 8 0 16 0 23 11a5 5 0 0 1-8 5c-4-6-10-6-15-6-10 0-18 0-23-15M1819 1165a5 5 0 1 1 9-3c3 8 8 8 14 8 8 0 16 0 23 11a5 5 0 0 1-8 5c-4-6-10-6-15-6-10 0-18 0-23-15M1819 2265a5 5 0 1 1 9-3c3 8 8 8 14 8 8 0 16 0 23 11a5 5 0 0 1-8 5c-4-6-10-6-15-6-10 0-18 0-23-15M719 65a5 5 0 1 1 9-3c3 8 8 8 14 8 8 0 16 0 23 11a5 5 0 0 1-8 5c-4-6-10-6-15-6-10 0-18 0-23-15M719 1165a5 5 0 1 1 9-3c3 8 8 8 14 8 8 0 16 0 23 11a5 5 0 0 1-8 5c-4-6-10-6-15-6-10 0-18 0-23-15M719 2265a5 5 0 1 1 9-3c3 8 8 8 14 8 8 0 16 0 23 11a5 5 0 0 1-8 5c-4-6-10-6-15-6-10 0-18 0-23-15"/></svg>